<?xml version="1.0" encoding="UTF-8" standalone="no"?>
<svg
   xmlns:serif="http://www.serif.com/"
   xmlns:dc="http://purl.org/dc/elements/1.1/"
   xmlns:cc="http://creativecommons.org/ns#"
   xmlns:rdf="http://www.w3.org/1999/02/22-rdf-syntax-ns#"
   xmlns:svg="http://www.w3.org/2000/svg"
   xmlns="http://www.w3.org/2000/svg"
   xmlns:sodipodi="http://sodipodi.sourceforge.net/DTD/sodipodi-0.dtd"
   xmlns:inkscape="http://www.inkscape.org/namespaces/inkscape"
   width="500"
   height="500"
   viewBox="0 0 500 500"
   version="1.1"
   xml:space="preserve"
   style="clip-rule:evenodd;fill-rule:evenodd;stroke-linejoin:round;stroke-miterlimit:2"
   id="svg197"
   sodipodi:docname="dnd.svg"
   inkscape:version="1.0.2 (e86c870879, 2021-01-15, custom)"><metadata
   id="metadata203"><rdf:RDF><cc:Work
       rdf:about=""><dc:format>image/svg+xml</dc:format><dc:type
         rdf:resource="http://purl.org/dc/dcmitype/StillImage" /><dc:title></dc:title></cc:Work></rdf:RDF></metadata><defs
   id="defs201" /><sodipodi:namedview
   pagecolor="#ffffff"
   bordercolor="#666666"
   borderopacity="1"
   objecttolerance="10"
   gridtolerance="10"
   guidetolerance="10"
   inkscape:pageopacity="0"
   inkscape:pageshadow="2"
   inkscape:window-width="1680"
   inkscape:window-height="1027"
   id="namedview199"
   showgrid="false"
   inkscape:zoom="0.74695122"
   inkscape:cx="492.00034"
   inkscape:cy="491.99892"
   inkscape:window-x="-8"
   inkscape:window-y="-8"
   inkscape:window-maximized="1"
   inkscape:current-layer="svg197"
   fit-margin-top="0"
   fit-margin-left="0"
   fit-margin-right="0"
   fit-margin-bottom="0" />
    <g
   transform="matrix(0.50847417,0,0,0.50847417,-316.06432,-369.44466)"
   id="g195">
        <g
   transform="matrix(4.16667,0,0,4.16667,219.46,-198.559)"
   id="g193">
            <g
   id="Calque-1"
   serif:id="Calque 1">
                <g
   id="g190">
                    <g
   id="g10">
                        <g
   transform="matrix(-1,0,0,1,429.065,84.829)"
   id="g4">
                            <rect
   x="96.819"
   y="137.50999"
   width="235.427"
   height="235.427"
   style="fill:#f0f0f0"
   id="rect2" />
                        </g>
                        <g
   transform="translate(332.246,222.298)"
   id="g8">
                            <path
   d="M 0,235.468 C -0.003,233.198 -0.106,141.17 -0.267,0.041 l 0.266,0.266 c -68.425,0.012 -149.211,0.027 -235.403,0.042 h -0.023 l 0.308,-0.308 c -0.016,86.211 -0.03,167.003 -0.042,235.427 l -0.266,-0.267 C -94.28,235.362 -2.27,235.465 0,235.468 c -2.268,0.002 -94.28,0.106 -235.427,0.266 h -0.265 v -0.266 c -0.013,-68.424 -0.027,-149.216 -0.042,-235.427 v -0.307 h 0.33 c 86.192,0.015 166.978,0.029 235.403,0.042 H 0.266 V 0.041 C 0.106,141.17 0.002,233.2 0,235.468"
   style="fill:#1c2f36;fill-rule:nonzero"
   id="path6" />
                        </g>
                    </g>
                    <g
   id="g124">
                        <g
   transform="translate(311.133,436.961)"
   id="g14">
                            <path
   d="M 0,6.775 C 0,6.605 3.172,6.467 7.083,6.467 6.469,7.082 6.912,6.636 6.775,6.773 V 6.592 L 6.776,6.411 6.777,6.051 C 6.779,5.814 6.78,5.58 6.782,5.348 6.788,4.896 6.794,4.454 6.8,4.018 6.822,3.243 6.845,2.496 6.865,1.767 6.921,0.485 6.998,-0.308 7.083,-0.308 c 0.085,0 0.162,0.793 0.218,2.075 0.02,0.729 0.043,1.476 0.065,2.251 0.006,0.436 0.012,0.878 0.018,1.33 0.002,0.232 0.004,0.466 0.005,0.703 L 7.39,6.411 7.391,6.592 V 6.773 C 7.253,6.911 7.697,6.468 7.083,7.083 3.172,7.083 0,6.945 0,6.775"
   style="fill:#405861;fill-rule:nonzero"
   id="path12" />
                        </g>
                        <g
   transform="matrix(0,1,1,0,288.841,436.305)"
   id="g18">
                            <path
   d="m 7.431,-7.431 c -0.17,0 -0.308,3.327 -0.308,7.431 0,4.105 0.138,7.431 0.308,7.431 0.17,0 0.308,-3.326 0.308,-7.431 0,-4.104 -0.138,-7.431 -0.308,-7.431"
   style="fill:#405861;fill-rule:nonzero"
   id="path16" />
                        </g>
                        <g
   transform="matrix(0,1,1,0,259.117,436.305)"
   id="g22">
                            <path
   d="m 7.431,-7.431 c -0.17,0 -0.308,3.327 -0.308,7.432 0,4.104 0.138,7.43 0.308,7.43 0.17,0 0.308,-3.326 0.308,-7.43 0,-4.105 -0.138,-7.432 -0.308,-7.432"
   style="fill:#405861;fill-rule:nonzero"
   id="path20" />
                        </g>
                        <g
   transform="matrix(0,1,1,0,229.394,436.305)"
   id="g26">
                            <path
   d="m 7.431,-7.431 c -0.17,0 -0.308,3.327 -0.308,7.431 0,4.104 0.138,7.431 0.308,7.431 0.17,0 0.308,-3.327 0.308,-7.431 0,-4.104 -0.138,-7.431 -0.308,-7.431"
   style="fill:#405861;fill-rule:nonzero"
   id="path24" />
                        </g>
                        <g
   transform="matrix(0,1,1,0,199.671,436.305)"
   id="g30">
                            <path
   d="m 7.431,-7.431 c -0.17,0 -0.308,3.327 -0.308,7.432 0,4.104 0.138,7.43 0.308,7.43 0.17,0 0.308,-3.326 0.308,-7.43 0,-4.105 -0.138,-7.432 -0.308,-7.432"
   style="fill:#405861;fill-rule:nonzero"
   id="path28" />
                        </g>
                        <g
   transform="matrix(0,1,1,0,169.947,436.305)"
   id="g34">
                            <path
   d="m 7.431,-7.431 c -0.17,0 -0.308,3.327 -0.308,7.432 0,4.104 0.138,7.43 0.308,7.43 0.17,0 0.308,-3.326 0.308,-7.43 0,-4.105 -0.138,-7.432 -0.308,-7.432"
   style="fill:#405861;fill-rule:nonzero"
   id="path32" />
                        </g>
                        <g
   transform="matrix(0,1,1,0,140.224,436.305)"
   id="g38">
                            <path
   d="m 7.431,-7.431 c -0.17,0 -0.308,3.327 -0.308,7.431 0,4.105 0.138,7.431 0.308,7.431 0.17,0 0.308,-3.326 0.308,-7.431 0,-4.104 -0.138,-7.431 -0.308,-7.431"
   style="fill:#405861;fill-rule:nonzero"
   id="path36" />
                        </g>
                        <g
   transform="translate(110.849,444.35)"
   id="g42">
                            <path
   d="m 0,-7.697 c 0.17,0 0.308,3.172 0.308,7.083 -0.614,-0.614 -0.168,-0.17 -0.305,-0.308 h 0.089 l 0.091,0.001 h 0.181 l 0.361,0.001 c 0.236,0.002 0.47,0.003 0.703,0.005 0.452,0.006 0.893,0.012 1.33,0.018 0.774,0.022 1.522,0.045 2.251,0.066 1.282,0.056 2.074,0.132 2.074,0.217 0,0.085 -0.792,0.162 -2.074,0.218 -0.729,0.021 -1.477,0.043 -2.251,0.065 -0.437,0.006 -0.878,0.012 -1.33,0.019 -0.233,0.001 -0.467,0.003 -0.703,0.004 L 0.364,-0.306 H 0.003 C -0.135,-0.444 0.308,0 -0.307,-0.614 c 0,-3.911 0.138,-7.083 0.307,-7.083"
   style="fill:#405861;fill-rule:nonzero"
   id="path40" />
                        </g>
                        <g
   transform="matrix(-1,0,0,1,110.85,421.791)"
   id="g46">
                            <path
   d="m 0.001,-14.861 c -0.17,0 -0.308,3.327 -0.308,7.431 0,4.104 0.138,7.43 0.308,7.43 0.169,0 0.307,-3.326 0.307,-7.43 0,-4.104 -0.138,-7.431 -0.307,-7.431"
   style="fill:#405861;fill-rule:nonzero"
   id="path44" />
                        </g>
                        <g
   transform="matrix(-1,0,0,1,110.85,392.069)"
   id="g50">
                            <path
   d="m 0.001,-14.862 c -0.17,0 -0.308,3.327 -0.308,7.431 0,4.104 0.138,7.431 0.308,7.431 0.169,0 0.307,-3.327 0.307,-7.431 0,-4.104 -0.138,-7.431 -0.307,-7.431"
   style="fill:#405861;fill-rule:nonzero"
   id="path48" />
                        </g>
                        <g
   transform="matrix(-1,0,0,1,110.85,362.345)"
   id="g54">
                            <path
   d="m 0.001,-14.861 c -0.17,0 -0.308,3.327 -0.308,7.43 0,4.105 0.138,7.431 0.308,7.431 0.169,0 0.307,-3.326 0.307,-7.431 0,-4.103 -0.138,-7.43 -0.307,-7.43"
   style="fill:#405861;fill-rule:nonzero"
   id="path52" />
                        </g>
                        <g
   transform="matrix(-1,0,0,1,110.85,332.621)"
   id="g58">
                            <path
   d="m 0.001,-14.861 c -0.17,0 -0.308,3.327 -0.308,7.431 0,4.104 0.138,7.43 0.308,7.43 0.169,0 0.307,-3.326 0.307,-7.43 0,-4.104 -0.138,-7.431 -0.307,-7.431"
   style="fill:#405861;fill-rule:nonzero"
   id="path56" />
                        </g>
                        <g
   transform="matrix(-1,0,0,1,110.85,302.899)"
   id="g62">
                            <path
   d="m 0.001,-14.862 c -0.17,0 -0.308,3.327 -0.308,7.43 0,4.105 0.138,7.432 0.308,7.432 0.169,0 0.307,-3.327 0.307,-7.432 0,-4.103 -0.138,-7.43 -0.307,-7.43"
   style="fill:#405861;fill-rule:nonzero"
   id="path60" />
                        </g>
                        <g
   transform="matrix(-1,0,0,1,110.85,273.175)"
   id="g66">
                            <path
   d="m 0.001,-14.862 c -0.17,0 -0.308,3.328 -0.308,7.431 0,4.105 0.138,7.431 0.308,7.431 0.169,0 0.307,-3.326 0.307,-7.431 0,-4.103 -0.138,-7.431 -0.307,-7.431"
   style="fill:#405861;fill-rule:nonzero"
   id="path64" />
                        </g>
                        <g
   transform="translate(117.932,243.145)"
   id="g70">
                            <path
   d="m 0,-6.776 c 0,0.17 -3.171,0.308 -7.082,0.308 0.613,-0.615 0.17,-0.169 0.307,-0.306 v 0.362 l -10e-4,0.36 c -0.002,0.237 -0.004,0.471 -0.005,0.703 -0.006,0.453 -0.012,0.894 -0.019,1.33 -0.022,0.775 -0.044,1.523 -0.065,2.251 -0.056,1.282 -0.133,2.075 -0.218,2.075 -0.084,0 -0.161,-0.793 -0.217,-2.075 -0.021,-0.728 -0.043,-1.476 -0.066,-2.251 -0.006,-0.436 -0.012,-0.877 -0.018,-1.33 -10e-4,-0.232 -0.003,-0.466 -0.005,-0.703 l -10e-4,-0.36 v -0.362 c 0.137,-0.137 -0.307,0.305 0.308,-0.309 3.911,0 7.082,0.138 7.082,0.307"
   style="fill:#405861;fill-rule:nonzero"
   id="path68" />
                        </g>
                        <g
   transform="matrix(0,-1,-1,0,140.224,228.939)"
   id="g74">
                            <path
   d="m -7.431,-7.432 c -0.17,0 -0.308,3.327 -0.308,7.432 0,4.103 0.138,7.431 0.308,7.431 0.169,0 0.307,-3.328 0.307,-7.431 0,-4.105 -0.138,-7.432 -0.307,-7.432"
   style="fill:#405861;fill-rule:nonzero"
   id="path72" />
                        </g>
                        <g
   transform="matrix(0,-1,-1,0,169.947,228.939)"
   id="g78">
                            <path
   d="m -7.43,-7.431 c -0.17,0 -0.308,3.326 -0.308,7.43 0,4.105 0.138,7.431 0.308,7.431 0.169,0 0.307,-3.326 0.307,-7.431 0,-4.104 -0.138,-7.43 -0.307,-7.43"
   style="fill:#405861;fill-rule:nonzero"
   id="path76" />
                        </g>
                        <g
   transform="matrix(0,-1,-1,0,199.671,228.939)"
   id="g82">
                            <path
   d="m -7.43,-7.431 c -0.17,0 -0.308,3.327 -0.308,7.431 0,4.104 0.138,7.43 0.308,7.43 0.169,0 0.307,-3.326 0.307,-7.43 0,-4.104 -0.138,-7.431 -0.307,-7.431"
   style="fill:#405861;fill-rule:nonzero"
   id="path80" />
                        </g>
                        <g
   transform="matrix(0,-1,-1,0,229.394,228.939)"
   id="g86">
                            <path
   d="m -7.431,-7.432 c -0.17,0 -0.308,3.327 -0.308,7.432 0,4.103 0.138,7.431 0.308,7.431 0.169,0 0.307,-3.328 0.307,-7.431 0,-4.105 -0.138,-7.432 -0.307,-7.432"
   style="fill:#405861;fill-rule:nonzero"
   id="path84" />
                        </g>
                        <g
   transform="matrix(0,-1,-1,0,259.117,228.939)"
   id="g90">
                            <path
   d="m -7.43,-7.431 c -0.17,0 -0.308,3.327 -0.308,7.431 0,4.104 0.138,7.43 0.308,7.43 0.169,0 0.307,-3.326 0.307,-7.43 0,-4.104 -0.138,-7.431 -0.307,-7.431"
   style="fill:#405861;fill-rule:nonzero"
   id="path88" />
                        </g>
                        <g
   transform="matrix(0,-1,-1,0,288.84,228.939)"
   id="g94">
                            <path
   d="m -7.43,-7.431 c -0.17,0 -0.308,3.327 -0.308,7.431 0,4.104 0.138,7.43 0.308,7.43 0.169,0 0.307,-3.326 0.307,-7.43 0,-4.104 -0.138,-7.431 -0.307,-7.431"
   style="fill:#405861;fill-rule:nonzero"
   id="path92" />
                        </g>
                        <g
   transform="translate(318.216,235.754)"
   id="g98">
                            <path
   d="m 0,7.698 c -0.17,0 -0.308,-3.171 -0.308,-7.083 0.615,0.614 0.169,0.17 0.305,0.308 h -0.18 L -0.364,0.922 -0.724,0.921 C -0.961,0.919 -1.195,0.918 -1.428,0.916 -1.88,0.91 -2.321,0.904 -2.757,0.898 -3.532,0.876 -4.28,0.854 -5.009,0.832 -6.29,0.777 -7.083,0.7 -7.083,0.615 -7.083,0.53 -6.29,0.453 -5.009,0.398 -4.28,0.376 -3.532,0.355 -2.757,0.332 -2.321,0.326 -1.88,0.32 -1.428,0.314 -1.195,0.312 -0.961,0.311 -0.724,0.309 l 0.36,-0.001 h 0.361 C 0.136,0.445 -0.308,0 0.308,0.615 0.308,4.527 0.17,7.698 0,7.698"
   style="fill:#405861;fill-rule:nonzero"
   id="path96" />
                        </g>
                        <g
   transform="translate(318.216,258.313)"
   id="g102">
                            <path
   d="m 0,14.862 c -0.17,0 -0.308,-3.327 -0.308,-7.43 C -0.308,3.327 -0.17,0 0,0 c 0.17,0 0.308,3.327 0.308,7.432 0,4.103 -0.138,7.43 -0.308,7.43"
   style="fill:#405861;fill-rule:nonzero"
   id="path100" />
                        </g>
                        <g
   transform="translate(318.216,288.037)"
   id="g106">
                            <path
   d="m 0,14.862 c -0.17,0 -0.308,-3.327 -0.308,-7.431 C -0.308,3.326 -0.17,0 0,0 0.17,0 0.308,3.326 0.308,7.431 0.308,11.535 0.17,14.862 0,14.862"
   style="fill:#405861;fill-rule:nonzero"
   id="path104" />
                        </g>
                        <g
   transform="translate(318.216,317.76)"
   id="g110">
                            <path
   d="m 0,14.861 c -0.17,0 -0.308,-3.327 -0.308,-7.43 C -0.308,3.326 -0.17,0 0,0 c 0.17,0 0.308,3.326 0.308,7.431 0,4.103 -0.138,7.43 -0.308,7.43"
   style="fill:#405861;fill-rule:nonzero"
   id="path108" />
                        </g>
                        <g
   transform="translate(318.216,347.484)"
   id="g114">
                            <path
   d="m 0,14.861 c -0.17,0 -0.308,-3.327 -0.308,-7.431 C -0.308,3.326 -0.17,0 0,0 0.17,0 0.308,3.326 0.308,7.43 0.308,11.534 0.17,14.861 0,14.861"
   style="fill:#405861;fill-rule:nonzero"
   id="path112" />
                        </g>
                        <g
   transform="translate(318.216,377.207)"
   id="g118">
                            <path
   d="m 0,14.862 c -0.17,0 -0.308,-3.327 -0.308,-7.431 C -0.308,3.326 -0.17,0 0,0 0.17,0 0.308,3.326 0.308,7.431 0.308,11.535 0.17,14.862 0,14.862"
   style="fill:#405861;fill-rule:nonzero"
   id="path116" />
                        </g>
                        <g
   transform="translate(318.216,406.93)"
   id="g122">
                            <path
   d="m 0,14.861 c -0.17,0 -0.308,-3.327 -0.308,-7.431 C -0.308,3.326 -0.17,0 0,0 0.17,0 0.308,3.326 0.308,7.43 0.308,11.534 0.17,14.861 0,14.861"
   style="fill:#405861;fill-rule:nonzero"
   id="path120" />
                        </g>
                    </g>
                    <g
   transform="translate(0.856102,42.9763)"
   id="g138">
                        <g
   transform="translate(204.426,274.024)"
   id="g128">
                            <path
   d="m 0,26.103 c 0,0 -0.425,0.026 -1.209,-0.153 -0.775,-0.17 -1.94,-0.622 -3.031,-1.723 -1.077,-1.056 -2.116,-2.881 -1.889,-5.123 0.119,-1.105 0.641,-2.239 1.5,-3.164 0.863,-0.911 2.095,-1.635 3.564,-1.676 l -0.232,0.23 C -1.326,12.89 -1.24,11.004 -0.057,9.454 0.525,8.698 1.397,8.139 2.36,7.893 3.327,7.64 4.339,7.644 5.361,7.859 L 5.031,8.156 C 4.816,6.05 5.53,3.695 7.332,2.201 8.201,1.447 9.267,0.914 10.391,0.598 l 0.847,-0.241 0.872,-0.14 c 0.582,-0.114 1.174,-0.155 1.77,-0.171 2.358,-0.099 4.935,0.158 7.136,1.534 1.072,0.709 1.97,1.698 2.588,2.849 0.62,1.151 0.96,2.441 1.086,3.749 0.047,0.571 0.072,1.128 0.019,1.71 l -0.32,-0.341 c 2.336,-0.111 4.748,0.447 6.586,1.847 1.851,1.375 3.071,3.339 3.877,5.32 0.424,0.966 0.709,2.101 0.605,3.175 -0.081,1.08 -0.459,2.109 -1.03,2.98 -1.143,1.757 -3.057,2.841 -4.974,3.068 l -0.016,10e-4 H 29.424 C 20.662,26.022 13.321,26.092 8.111,26.142 5.573,26.148 3.558,26.152 2.121,26.156 1.466,26.148 0.943,26.142 0.542,26.138 0.185,26.129 0,26.118 0,26.103 0.001,26.088 0.186,26.072 0.544,26.052 0.946,26.036 1.469,26.014 2.125,25.988 3.563,25.949 5.578,25.894 8.116,25.825 13.323,25.72 20.66,25.574 29.416,25.399 l -0.028,0.002 c 1.765,-0.219 3.524,-1.23 4.562,-2.845 1.071,-1.601 1.269,-3.746 0.353,-5.618 -0.785,-1.914 -1.958,-3.776 -3.69,-5.056 -1.719,-1.303 -3.961,-1.824 -6.194,-1.721 L 24.065,10.177 24.098,9.82 C 24.145,9.318 24.123,8.765 24.078,8.233 23.877,5.754 22.69,3.391 20.683,2.089 18.656,0.816 16.197,0.547 13.908,0.638 11.63,0.752 9.312,1.227 7.701,2.632 6.048,3.971 5.38,6.169 5.559,8.078 L 5.594,8.458 5.228,8.374 C 3.414,7.96 1.37,8.379 0.329,9.76 c -1.071,1.363 -1.2,3.16 -1.182,4.718 l 0.002,0.227 -0.234,0.003 c -1.261,0.022 -2.454,0.668 -3.255,1.51 -0.812,0.854 -1.311,1.897 -1.439,2.93 -0.248,2.093 0.7,3.865 1.716,4.907 1.023,1.088 2.137,1.567 2.887,1.772 0.756,0.215 1.181,0.235 1.176,0.276"
   style="fill:#1c2f36;fill-rule:nonzero"
   id="path126" />
                        </g>
                        <g
   transform="translate(224.377,286.682)"
   id="g132">
                            <path
   d="M 0,6.321 C -0.125,6.433 -2.614,3.854 -5.587,0.536 l 0.449,0.01 c -0.035,0.036 -0.073,0.075 -0.111,0.114 -3.158,3.245 -5.816,5.78 -5.938,5.661 -0.122,-0.118 2.339,-2.844 5.497,-6.089 0.039,-0.04 0.077,-0.079 0.112,-0.115 l 0.229,-0.236 0.22,0.245 C -2.161,3.449 0.125,6.209 0,6.321"
   style="fill:#1c2f36;fill-rule:nonzero"
   id="path130" />
                        </g>
                        <g
   transform="translate(219.019,287.013)"
   id="g136">
                            <path
   d="m 0,19.786 c -0.169,0 -0.307,-4.43 -0.307,-9.893 C -0.307,4.429 -0.169,0 0,0 0.17,0 0.308,4.429 0.308,9.893 0.308,15.356 0.17,19.786 0,19.786"
   style="fill:#1c2f36;fill-rule:nonzero"
   id="path134" />
                        </g>
                    </g>
                    <g
   transform="translate(0.856102,42.9763)"
   id="g188">
                        <g
   transform="translate(169.22,323.631)"
   id="g142">
                            <path
   d="M 0,2.762 -2.195,-2.224 -4.39,2.762 Z m 0.509,1.163 h -5.407 l -1.121,2.544 h -1.496 l 4.608,-10.176 h 1.439 L 3.154,6.469 H 1.628 Z"
   style="fill:#1c2f36;fill-rule:nonzero"
   id="path140" />
                        </g>
                        <g
   transform="translate(179.495,323.253)"
   id="g146">
                            <path
   d="M 0,2.995 C 0,1.352 -1.119,0.291 -2.587,0.291 c -1.483,0 -2.602,1.061 -2.602,2.704 0,1.643 1.119,2.719 2.602,2.719 C -1.119,5.714 0,4.638 0,2.995 M 1.381,-3.939 V 6.848 H 0.043 V 5.627 C -0.581,6.499 -1.57,6.934 -2.704,6.934 -4.957,6.934 -6.6,5.349 -6.6,2.995 c 0,-2.354 1.643,-3.925 3.896,-3.925 1.09,0 2.05,0.407 2.689,1.237 v -4.246 z"
   style="fill:#1c2f36;fill-rule:nonzero"
   id="path144" />
                        </g>
                        <g
   transform="translate(189.406,323.253)"
   id="g150">
                            <path
   d="M 0,2.995 C 0,1.352 -1.119,0.291 -2.587,0.291 c -1.483,0 -2.602,1.061 -2.602,2.704 0,1.643 1.119,2.719 2.602,2.719 C -1.119,5.714 0,4.638 0,2.995 M 1.381,-3.939 V 6.848 H 0.043 V 5.627 C -0.581,6.499 -1.57,6.934 -2.704,6.934 -4.957,6.934 -6.6,5.349 -6.6,2.995 c 0,-2.354 1.643,-3.925 3.896,-3.925 1.09,0 2.05,0.407 2.689,1.237 v -4.246 z"
   style="fill:#1c2f36;fill-rule:nonzero"
   id="path148" />
                        </g>
                        <g
   transform="translate(0,53.92)"
   id="g154">
                            <path
   d="m 197.34,268.476 h 1.396 v 7.704 h -1.396 z m -0.247,-2.385 c 0,-0.508 0.407,-0.915 0.944,-0.915 0.538,0 0.945,0.392 0.945,0.887 0,0.523 -0.392,0.93 -0.945,0.93 -0.537,0 -0.944,-0.392 -0.944,-0.902"
   style="fill:#1c2f36;fill-rule:nonzero"
   id="path152" />
                        </g>
                        <g
   transform="translate(205.727,321.248)"
   id="g158">
                            <path
   d="m 0,8.401 c -0.422,0.363 -1.062,0.538 -1.687,0.538 -1.554,0 -2.441,-0.858 -2.441,-2.413 V 2.296 H -5.437 V 1.148 h 1.309 v -1.686 h 1.396 v 1.686 h 2.209 v 1.148 h -2.209 v 4.171 c 0,0.83 0.435,1.294 1.206,1.294 0.407,0 0.799,-0.13 1.09,-0.363 z"
   style="fill:#1c2f36;fill-rule:nonzero"
   id="path156" />
                        </g>
                        <g
   transform="translate(207.833,326.8)"
   id="g162">
                            <path
   d="M 0,-1.091 H 4.942 C 4.797,-2.385 3.823,-3.3 2.471,-3.3 1.134,-3.3 0.145,-2.399 0,-1.091 m 6.25,1.003 H 0 c 0.175,1.352 1.265,2.254 2.791,2.254 0.901,0 1.656,-0.306 2.224,-0.931 l 0.77,0.902 c -0.697,0.814 -1.759,1.25 -3.038,1.25 -2.485,0 -4.143,-1.643 -4.143,-3.94 0,-2.282 1.643,-3.925 3.867,-3.925 2.224,0 3.808,1.6 3.808,3.969 0,0.116 -0.014,0.29 -0.029,0.421"
   style="fill:#1c2f36;fill-rule:nonzero"
   id="path160" />
                        </g>
                        <g
   transform="translate(228.836,326.756)"
   id="g166">
                            <path
   d="M 0,-1.09 V 3.344 H -1.396 V -0.93 c 0,-1.513 -0.726,-2.254 -1.991,-2.254 -1.396,0 -2.311,0.887 -2.311,2.559 V 3.344 H -7.094 V -0.93 c 0,-1.513 -0.726,-2.254 -1.991,-2.254 -1.395,0 -2.311,0.887 -2.311,2.559 v 3.969 h -1.396 v -7.705 h 1.337 v 1.148 c 0.553,-0.784 1.498,-1.221 2.66,-1.221 1.178,0 2.166,0.466 2.675,1.425 0.582,-0.872 1.657,-1.425 2.966,-1.425 1.875,0 3.154,1.076 3.154,3.344"
   style="fill:#1c2f36;fill-rule:nonzero"
   id="path164" />
                        </g>
                        <g
   transform="translate(0,53.92)"
   id="g170">
                            <path
   d="m 235.314,268.476 h 1.396 v 7.704 h -1.396 z m -0.246,-2.385 c 0,-0.508 0.407,-0.915 0.944,-0.915 0.539,0 0.945,0.392 0.945,0.887 0,0.523 -0.392,0.93 -0.945,0.93 -0.537,0 -0.944,-0.392 -0.944,-0.902"
   style="fill:#1c2f36;fill-rule:nonzero"
   id="path168" />
                        </g>
                        <g
   transform="translate(252.162,326.756)"
   id="g174">
                            <path
   d="M 0,-1.09 V 3.344 H -1.396 V -0.93 c 0,-1.513 -0.727,-2.254 -1.992,-2.254 -1.395,0 -2.31,0.887 -2.31,2.559 V 3.344 H -7.094 V -0.93 c 0,-1.513 -0.727,-2.254 -1.992,-2.254 -1.394,0 -2.31,0.887 -2.31,2.559 v 3.969 h -1.396 v -7.705 h 1.338 v 1.148 c 0.552,-0.784 1.497,-1.221 2.659,-1.221 1.178,0 2.166,0.466 2.675,1.425 0.582,-0.872 1.657,-1.425 2.966,-1.425 1.874,0 3.154,1.076 3.154,3.344"
   style="fill:#1c2f36;fill-rule:nonzero"
   id="path172" />
                        </g>
                        <g
   transform="translate(259.441,324.765)"
   id="g178">
                            <path
   d="M 0,2.98 V 1.905 h -2.152 c -1.38,0 -1.773,0.537 -1.773,1.191 0,0.771 0.64,1.25 1.7,1.25 1.047,0 1.876,-0.479 2.225,-1.366 M 1.396,0.683 V 5.335 H 0.073 V 4.318 c -0.466,0.697 -1.324,1.104 -2.529,1.104 -1.744,0 -2.85,-0.93 -2.85,-2.267 0,-1.236 0.8,-2.253 3.096,-2.253 H 0 V 0.626 c 0,-1.178 -0.684,-1.861 -2.064,-1.861 -0.915,0 -1.846,0.319 -2.442,0.828 l -0.582,-1.047 c 0.8,-0.639 1.948,-0.988 3.184,-0.988 2.107,0 3.3,1.018 3.3,3.125"
   style="fill:#1c2f36;fill-rule:nonzero"
   id="path176" />
                        </g>
                        <g
   transform="translate(269.469,329.285)"
   id="g182">
                            <path
   d="m 0,-3.241 c 0,-1.498 -1.104,-2.501 -2.646,-2.501 -1.555,0 -2.66,1.003 -2.66,2.501 0,1.482 1.105,2.515 2.66,2.515 1.542,0 2.646,-1.033 2.646,-2.515 m 1.367,-3.648 v 6.657 c 0,2.718 -1.381,3.954 -3.998,3.954 -1.41,0 -2.835,-0.393 -3.677,-1.15 L -5.64,1.497 c 0.713,0.611 1.832,1.003 2.965,1.003 1.818,0 2.646,-0.843 2.646,-2.587 v -0.611 c -0.668,0.8 -1.671,1.192 -2.776,1.192 -2.223,0 -3.91,-1.511 -3.91,-3.735 0,-2.225 1.687,-3.722 3.91,-3.722 1.149,0 2.195,0.422 2.849,1.265 v -1.191 z"
   style="fill:#1c2f36;fill-rule:nonzero"
   id="path180" />
                        </g>
                        <g
   transform="translate(274.177,326.8)"
   id="g186">
                            <path
   d="M 0,-1.091 H 4.942 C 4.797,-2.385 3.822,-3.3 2.471,-3.3 1.133,-3.3 0.146,-2.399 0,-1.091 m 6.25,1.003 H 0 c 0.174,1.352 1.265,2.254 2.791,2.254 0.901,0 1.656,-0.306 2.224,-0.931 l 0.77,0.902 c -0.698,0.814 -1.759,1.25 -3.038,1.25 -2.485,0 -4.143,-1.643 -4.143,-3.94 0,-2.282 1.643,-3.925 3.867,-3.925 2.224,0 3.808,1.6 3.808,3.969 0,0.116 -0.014,0.29 -0.029,0.421"
   style="fill:#1c2f36;fill-rule:nonzero"
   id="path184" />
                        </g>
                    </g>
                </g>
            </g>
        </g>
    </g>
</svg>
