<?xml version="1.0" encoding="UTF-8" standalone="no"?>
<svg
   xmlns:dc="http://purl.org/dc/elements/1.1/"
   xmlns:cc="http://creativecommons.org/ns#"
   xmlns:rdf="http://www.w3.org/1999/02/22-rdf-syntax-ns#"
   xmlns:svg="http://www.w3.org/2000/svg"
   xmlns="http://www.w3.org/2000/svg"
   xmlns:sodipodi="http://sodipodi.sourceforge.net/DTD/sodipodi-0.dtd"
   xmlns:inkscape="http://www.inkscape.org/namespaces/inkscape"
   version="1.1"
   id="svg2"
   xml:space="preserve"
   width="145.24266"
   height="45.591999"
   viewBox="0 0 145.24266 45.591999"
   sodipodi:docname="execute.svg"
   inkscape:version="1.0.2 (e86c870879, 2021-01-15, custom)"><metadata
     id="metadata8"><rdf:RDF><cc:Work
         rdf:about=""><dc:format>image/svg+xml</dc:format><dc:type
           rdf:resource="http://purl.org/dc/dcmitype/StillImage" /><dc:title></dc:title></cc:Work></rdf:RDF></metadata><defs
     id="defs6"><clipPath
       clipPathUnits="userSpaceOnUse"
       id="clipPath18"><path
         d="M 0,373.932 H 841.89 V 595.275 H 0 Z"
         id="path16" /></clipPath><linearGradient
       x1="0"
       y1="0"
       x2="1"
       y2="0"
       gradientUnits="userSpaceOnUse"
       gradientTransform="matrix(841.88977,0,0,-841.88977,0,484.60373)"
       spreadMethod="pad"
       id="linearGradient30"><stop
         style="stop-opacity:1;stop-color:#2b639b"
         offset="0"
         id="stop24" /><stop
         style="stop-opacity:1;stop-color:#234075"
         offset="0.995897"
         id="stop26" /><stop
         style="stop-opacity:1;stop-color:#234075"
         offset="1"
         id="stop28" /></linearGradient><clipPath
       clipPathUnits="userSpaceOnUse"
       id="clipPath46"><path
         d="M 0,595.276 H 841.89 V 0 H 0 Z"
         id="path44" /></clipPath><clipPath
       clipPathUnits="userSpaceOnUse"
       id="clipPath112"><path
         d="m 750.777,385.152 h 75.72 v 36 h -75.72 z"
         id="path110" /></clipPath><clipPath
       clipPathUnits="userSpaceOnUse"
       id="clipPath304"><path
         d="M 0,595.276 H 841.89 V 0 H 0 Z"
         id="path302" /></clipPath><clipPath
       clipPathUnits="userSpaceOnUse"
       id="clipPath326"><path
         d="M 0,595.276 H 841.89 V 0 H 0 Z"
         id="path324" /></clipPath><clipPath
       clipPathUnits="userSpaceOnUse"
       id="clipPath326-7"><path
         d="M 0,595.276 H 841.89 V 0 H 0 Z"
         id="path324-5" /></clipPath></defs><sodipodi:namedview
     pagecolor="#ffffff"
     bordercolor="#666666"
     borderopacity="1"
     objecttolerance="10"
     gridtolerance="10"
     guidetolerance="10"
     inkscape:pageopacity="0"
     inkscape:pageshadow="2"
     inkscape:window-width="1680"
     inkscape:window-height="1027"
     id="namedview4"
     showgrid="false"
     inkscape:zoom="5.238479"
     inkscape:cx="73.651294"
     inkscape:cy="50.292247"
     inkscape:window-x="-8"
     inkscape:window-y="-8"
     inkscape:window-maximized="1"
     inkscape:current-layer="g10"
     fit-margin-top="0"
     fit-margin-left="0"
     fit-margin-right="0"
     fit-margin-bottom="0"
     inkscape:snap-bbox="true"
     inkscape:bbox-nodes="true"
     inkscape:snap-text-baseline="true"
     inkscape:snap-page="true"
     inkscape:document-rotation="0" /><g
     id="g10"
     inkscape:groupmode="layer"
     inkscape:label="HDRplusUI"
     transform="matrix(1.3333333,0,0,-1.3333333,-525.62434,500.09667)"><path
       d="m 409.29525,373.0145 c -7.18,0 -13.02,-5.841 -13.02,-13.021 v -4.037 c 0,-7.179 5.84,-13.02 13.02,-13.02 h 78.778 c 7.18,0 13.02,5.841 13.02,13.02 v 4.037 c 0,7.18 -5.84,13.021 -13.02,13.021 z m 78.778,-31.386 h -78.778 c -7.899,0 -14.327,6.428 -14.327,14.328 v 4.037 c 0,7.901 6.428,14.329 14.327,14.329 h 78.778 c 7.901,0 14.327,-6.428 14.327,-14.329 v -4.037 c 0,-7.9 -6.426,-14.328 -14.327,-14.328"
       style="display:none;fill:#4862b7;fill-opacity:1;fill-rule:nonzero;stroke:none"
       id="path330" /><rect
       style="display:inline;fill:none;fill-opacity:1;stroke:#4862b7;stroke-width:1.5;stroke-opacity:1"
       id="rect1227"
       width="107.432"
       height="32.694"
       x="394.96826"
       y="-374.32251"
       transform="scale(1,-1)"
       ry="16.347" /><text
       transform="scale(1,-1)"
       style="font-variant:normal;font-weight:900;font-stretch:normal;font-size:18.7255px;font-family:'Raleway Black';-inkscape-font-specification:Raleway-Black;writing-mode:lr-tb;display:inline;fill:#4862b7;fill-opacity:1;fill-rule:nonzero;stroke:none"
       id="text334"
       x="412.85736"
       y="-351.9137"><tspan
         x="412.85736 424.03647 433.97971 445.38354 456.18817 468.05826 475.86679"
         y="-351.9137"
         sodipodi:role="line"
         id="tspan332">Execute</tspan></text></g></svg>
