<?xml version="1.0" encoding="UTF-8" standalone="no"?>
<svg
   xmlns:dc="http://purl.org/dc/elements/1.1/"
   xmlns:cc="http://creativecommons.org/ns#"
   xmlns:rdf="http://www.w3.org/1999/02/22-rdf-syntax-ns#"
   xmlns:svg="http://www.w3.org/2000/svg"
   xmlns="http://www.w3.org/2000/svg"
   xmlns:sodipodi="http://sodipodi.sourceforge.net/DTD/sodipodi-0.dtd"
   xmlns:inkscape="http://www.inkscape.org/namespaces/inkscape"
   width="144.57564"
   height="44.92522"
   viewBox="0 0 144.57564 44.92522"
   version="1.1"
   xml:space="preserve"
   style="clip-rule:evenodd;fill-rule:evenodd;stroke-linejoin:round;stroke-miterlimit:2"
   id="svg37"
   sodipodi:docname="execute_hov.svg"
   inkscape:version="1.0.2 (e86c870879, 2021-01-15, custom)"><metadata
   id="metadata43"><rdf:RDF><cc:Work
       rdf:about=""><dc:format>image/svg+xml</dc:format><dc:type
         rdf:resource="http://purl.org/dc/dcmitype/StillImage" /><dc:title></dc:title></cc:Work></rdf:RDF></metadata><defs
   id="defs41" /><sodipodi:namedview
   pagecolor="#ffffff"
   bordercolor="#666666"
   borderopacity="1"
   objecttolerance="10"
   gridtolerance="10"
   guidetolerance="10"
   inkscape:pageopacity="0"
   inkscape:pageshadow="2"
   inkscape:window-width="1680"
   inkscape:window-height="1027"
   id="namedview39"
   showgrid="false"
   fit-margin-top="0"
   fit-margin-left="0"
   fit-margin-right="0"
   fit-margin-bottom="0"
   inkscape:zoom="7.5416667"
   inkscape:cx="72.667982"
   inkscape:cy="22.665751"
   inkscape:window-x="-8"
   inkscape:window-y="-8"
   inkscape:window-maximized="1"
   inkscape:current-layer="rect1227" />
    <g
   id="HDRplusUI"
   transform="matrix(1.33333,0,0,-1.33333,-525.95602,499.76275)">
        <g
   id="rect1227"
   transform="scale(1,-1)">
            <path
   d="m 502.4,-357.976 c 0,-9.022 -7.325,-16.347 -16.347,-16.347 h -74.738 c -9.022,0 -16.347,7.325 -16.347,16.347 0,9.023 7.325,16.347 16.347,16.347 h 74.738 c 9.022,0 16.347,-7.324 16.347,-16.347 z"
   style="fill:#4862b7;stroke:#4862b7;stroke-opacity:1"
   id="path2" />
        </g>
        <g
   transform="matrix(1,0,0,-1,412.857,351.914)"
   id="g34">
            <g
   id="text334">
                <g
   transform="scale(18.7255)"
   id="g7">
                    <path
   d="M 0.567,-0.17 V 0 H 0.061 v -0.71 h 0.497 v 0.17 H 0.256 v 0.1 h 0.258 v 0.158 H 0.256 v 0.112 z"
   style="fill:#ffffff;fill-rule:nonzero"
   id="path5" />
                </g>
                <g
   transform="matrix(18.7255,0,0,18.7255,11.1791,0)"
   id="g11">
                    <path
   d="m 0.192,-0.519 0.075,0.127 0.01,0.021 0.01,-0.021 0.075,-0.127 H 0.555 L 0.386,-0.262 0.56,0 H 0.367 L 0.286,-0.127 0.277,-0.147 0.268,-0.127 0.187,0 h -0.193 l 0.174,-0.258 -0.169,-0.261 z"
   style="fill:#ffffff;fill-rule:nonzero"
   id="path9" />
                </g>
                <g
   transform="matrix(18.7255,0,0,18.7255,21.1224,0)"
   id="g15">
                    <path
   d="M 0.307,0.01 C 0.261,0.01 0.22,0.003 0.184,-0.011 0.148,-0.025 0.118,-0.045 0.094,-0.069 0.069,-0.093 0.051,-0.121 0.038,-0.153 0.025,-0.184 0.019,-0.217 0.019,-0.252 c 0,-0.05 0.011,-0.095 0.033,-0.137 0.022,-0.042 0.054,-0.075 0.097,-0.1 0.043,-0.025 0.095,-0.038 0.158,-0.038 0.063,0 0.115,0.012 0.158,0.037 0.043,0.025 0.075,0.058 0.097,0.099 0.022,0.041 0.033,0.085 0.033,0.133 0,0.01 0,0.02 -0.001,0.03 -0.001,0.01 -0.003,0.019 -0.004,0.027 H 0.221 c 0.001,0.018 0.007,0.032 0.015,0.043 0.01,0.011 0.021,0.019 0.035,0.024 0.013,0.005 0.027,0.008 0.042,0.008 0.021,0 0.04,-0.005 0.059,-0.014 0.018,-0.009 0.03,-0.022 0.036,-0.039 l 0.161,0.046 C 0.555,-0.105 0.536,-0.08 0.51,-0.059 0.486,-0.038 0.456,-0.021 0.422,-0.009 0.388,0.004 0.35,0.01 0.307,0.01 Z M 0.217,-0.315 H 0.391 C 0.389,-0.331 0.384,-0.345 0.377,-0.356 0.369,-0.368 0.359,-0.376 0.346,-0.383 0.334,-0.389 0.32,-0.392 0.304,-0.392 c -0.016,0 -0.03,0.003 -0.042,0.009 -0.013,0.007 -0.023,0.015 -0.03,0.027 -0.008,0.011 -0.013,0.025 -0.015,0.041 z"
   style="fill:#ffffff;fill-rule:nonzero"
   id="path13" />
                </g>
                <g
   transform="matrix(18.7255,0,0,18.7255,32.5262,0)"
   id="g19">
                    <path
   d="M 0.308,0.01 C 0.261,0.01 0.22,0.003 0.185,-0.012 0.149,-0.026 0.119,-0.046 0.094,-0.071 0.069,-0.096 0.051,-0.125 0.038,-0.157 0.025,-0.189 0.019,-0.223 0.019,-0.259 c 0,-0.047 0.011,-0.091 0.034,-0.132 0.022,-0.041 0.055,-0.074 0.098,-0.099 0.043,-0.025 0.095,-0.037 0.157,-0.037 0.063,0 0.117,0.013 0.16,0.04 0.043,0.027 0.076,0.061 0.097,0.103 L 0.38,-0.328 C 0.371,-0.341 0.361,-0.35 0.348,-0.357 0.336,-0.364 0.322,-0.367 0.307,-0.367 c -0.017,0 -0.033,0.004 -0.047,0.013 -0.014,0.009 -0.025,0.021 -0.033,0.037 -0.009,0.016 -0.013,0.035 -0.013,0.058 0,0.023 0.004,0.042 0.013,0.059 0.008,0.016 0.019,0.028 0.033,0.037 0.014,0.009 0.03,0.013 0.047,0.013 0.011,0 0.02,-0.002 0.029,-0.005 0.009,-0.003 0.017,-0.007 0.025,-0.013 0.007,-0.006 0.014,-0.013 0.019,-0.021 l 0.185,0.056 C 0.551,-0.105 0.532,-0.08 0.507,-0.059 0.483,-0.038 0.455,-0.021 0.422,-0.009 0.389,0.004 0.351,0.01 0.308,0.01 Z"
   style="fill:#ffffff;fill-rule:nonzero"
   id="path17" />
                </g>
                <g
   transform="matrix(18.7255,0,0,18.7255,43.3308,0)"
   id="g23">
                    <path
   d="m 0.043,-0.178 v -0.341 h 0.19 v 0.297 c 0,0.023 0.005,0.04 0.016,0.053 0.01,0.013 0.024,0.019 0.042,0.019 0.01,0 0.02,-0.001 0.03,-0.004 0.01,-0.002 0.02,-0.007 0.031,-0.015 0.01,-0.008 0.02,-0.018 0.03,-0.032 v -0.318 h 0.19 v 0.31 c 0,0.018 0.003,0.03 0.008,0.037 0.005,0.007 0.015,0.011 0.028,0.012 V 0 C 0.591,0.003 0.576,0.006 0.563,0.007 0.55,0.009 0.538,0.01 0.528,0.01 0.496,0.01 0.471,0.004 0.452,-0.008 0.433,-0.02 0.421,-0.038 0.416,-0.062 L 0.412,-0.081 C 0.387,-0.049 0.358,-0.025 0.324,-0.011 0.289,0.003 0.25,0.01 0.207,0.01 0.154,0.01 0.114,-0.006 0.086,-0.038 0.057,-0.071 0.043,-0.117 0.043,-0.178 Z"
   style="fill:#ffffff;fill-rule:nonzero"
   id="path21" />
                </g>
                <g
   transform="matrix(18.7255,0,0,18.7255,55.2028,0)"
   id="g27">
                    <path
   d="M 0.417,-0.03 C 0.4,-0.023 0.381,-0.016 0.362,-0.01 0.342,-0.003 0.322,0.002 0.302,0.005 0.281,0.008 0.261,0.01 0.242,0.01 0.213,0.01 0.187,0.005 0.163,-0.004 0.139,-0.014 0.12,-0.029 0.106,-0.051 0.091,-0.073 0.084,-0.103 0.084,-0.14 V -0.376 H 0.019 v -0.143 h 0.065 v -0.165 h 0.19 v 0.165 h 0.103 v 0.143 H 0.274 v 0.168 c 0,0.016 0.004,0.028 0.011,0.035 0.007,0.007 0.017,0.01 0.03,0.01 0.009,0 0.02,-0.002 0.032,-0.005 0.012,-0.003 0.024,-0.007 0.036,-0.012 z"
   style="fill:#ffffff;fill-rule:nonzero"
   id="path25" />
                </g>
                <g
   transform="matrix(18.7255,0,0,18.7255,63.0113,0)"
   id="g31">
                    <path
   d="M 0.307,0.01 C 0.261,0.01 0.22,0.003 0.184,-0.011 0.148,-0.025 0.118,-0.045 0.094,-0.069 0.069,-0.093 0.051,-0.121 0.038,-0.153 0.025,-0.184 0.019,-0.217 0.019,-0.252 c 0,-0.05 0.011,-0.095 0.033,-0.137 0.022,-0.042 0.054,-0.075 0.097,-0.1 0.043,-0.025 0.095,-0.038 0.158,-0.038 0.063,0 0.115,0.012 0.158,0.037 0.043,0.025 0.075,0.058 0.097,0.099 0.022,0.041 0.033,0.085 0.033,0.133 0,0.01 0,0.02 -0.001,0.03 -0.001,0.01 -0.003,0.019 -0.004,0.027 H 0.221 c 0.001,0.018 0.007,0.032 0.015,0.043 0.01,0.011 0.021,0.019 0.035,0.024 0.013,0.005 0.027,0.008 0.042,0.008 0.021,0 0.04,-0.005 0.059,-0.014 0.018,-0.009 0.03,-0.022 0.036,-0.039 l 0.161,0.046 C 0.555,-0.105 0.536,-0.08 0.51,-0.059 0.486,-0.038 0.456,-0.021 0.422,-0.009 0.388,0.004 0.35,0.01 0.307,0.01 Z M 0.217,-0.315 H 0.391 C 0.389,-0.331 0.384,-0.345 0.377,-0.356 0.369,-0.368 0.359,-0.376 0.346,-0.383 0.334,-0.389 0.32,-0.392 0.304,-0.392 c -0.016,0 -0.03,0.003 -0.042,0.009 -0.013,0.007 -0.023,0.015 -0.03,0.027 -0.008,0.011 -0.013,0.025 -0.015,0.041 z"
   style="fill:#ffffff;fill-rule:nonzero"
   id="path29" />
                </g>
            </g>
        </g>
    </g>
</svg>
