<?xml version="1.0" encoding="UTF-8" standalone="no"?>
<svg
   xmlns:dc="http://purl.org/dc/elements/1.1/"
   xmlns:cc="http://creativecommons.org/ns#"
   xmlns:rdf="http://www.w3.org/1999/02/22-rdf-syntax-ns#"
   xmlns:svg="http://www.w3.org/2000/svg"
   xmlns="http://www.w3.org/2000/svg"
   xmlns:sodipodi="http://sodipodi.sourceforge.net/DTD/sodipodi-0.dtd"
   xmlns:inkscape="http://www.inkscape.org/namespaces/inkscape"
   version="1.1"
   id="svg2"
   xml:space="preserve"
   width="129.9104"
   height="129.91226"
   viewBox="0 0 129.9104 129.91226"
   sodipodi:docname="icon.svg"
   inkscape:version="1.0.2 (e86c870879, 2021-01-15, custom)"><metadata
     id="metadata8"><rdf:RDF><cc:Work
         rdf:about=""><dc:format>image/svg+xml</dc:format><dc:type
           rdf:resource="http://purl.org/dc/dcmitype/StillImage" /><dc:title /></cc:Work></rdf:RDF></metadata><defs
     id="defs6"><clipPath
       clipPathUnits="userSpaceOnUse"
       id="clipPath18"><path
         d="M 0,373.932 H 841.89 V 595.275 H 0 Z"
         id="path16" /></clipPath><linearGradient
       x1="0"
       y1="0"
       x2="1"
       y2="0"
       gradientUnits="userSpaceOnUse"
       gradientTransform="matrix(841.88977,0,0,-841.88977,0,484.60373)"
       spreadMethod="pad"
       id="linearGradient30"><stop
         style="stop-opacity:1;stop-color:#2b639b"
         offset="0"
         id="stop24" /><stop
         style="stop-opacity:1;stop-color:#234075"
         offset="0.995897"
         id="stop26" /><stop
         style="stop-opacity:1;stop-color:#234075"
         offset="1"
         id="stop28" /></linearGradient><clipPath
       clipPathUnits="userSpaceOnUse"
       id="clipPath46"><path
         d="M 0,595.276 H 841.89 V 0 H 0 Z"
         id="path44" /></clipPath><clipPath
       clipPathUnits="userSpaceOnUse"
       id="clipPath112"><path
         d="m 750.777,385.152 h 75.72 v 36 h -75.72 z"
         id="path110" /></clipPath><clipPath
       clipPathUnits="userSpaceOnUse"
       id="clipPath304"><path
         d="M 0,595.276 H 841.89 V 0 H 0 Z"
         id="path302" /></clipPath><clipPath
       clipPathUnits="userSpaceOnUse"
       id="clipPath326"><path
         d="M 0,595.276 H 841.89 V 0 H 0 Z"
         id="path324" /></clipPath><clipPath
       clipPathUnits="userSpaceOnUse"
       id="clipPath46-2"><path
         d="M 0,595.276 H 841.89 V 0 H 0 Z"
         id="path44-8" /></clipPath></defs><sodipodi:namedview
     pagecolor="#ffffff"
     bordercolor="#666666"
     borderopacity="1"
     objecttolerance="10"
     gridtolerance="10"
     guidetolerance="10"
     inkscape:pageopacity="0"
     inkscape:pageshadow="2"
     inkscape:window-width="1680"
     inkscape:window-height="1027"
     id="namedview4"
     showgrid="false"
     inkscape:zoom="5.238479"
     inkscape:cx="56.546566"
     inkscape:cy="63.855504"
     inkscape:window-x="-8"
     inkscape:window-y="-8"
     inkscape:window-maximized="1"
     inkscape:current-layer="g10"
     fit-margin-top="0"
     fit-margin-left="0"
     fit-margin-right="0"
     fit-margin-bottom="0"
     inkscape:pagecheckerboard="true"
     borderlayer="false"
     inkscape:document-rotation="0" /><g
     id="g10"
     inkscape:groupmode="layer"
     inkscape:label="HDRplusUI"
     transform="matrix(1.3333333,0,0,-1.3333333,-521.41193,490.42323)"><g
       id="g904"
       style="fill:#fdfdfd;fill-opacity:1;stroke:none;stroke-opacity:1;stroke-width:1.50000004;stroke-miterlimit:4;stroke-dasharray:none"><path
         d="m 430.72705,329.66753 v -10.23 h -2.809 v 4.005 h -3.43 v -4.005 h -2.809 v 10.23 h 2.809 v -3.775 h 3.43 v 3.775 z"
         style="fill:#fdfdfd;fill-opacity:1;fill-rule:nonzero;stroke:none;stroke-opacity:1;stroke-width:1.50000004;stroke-miterlimit:4;stroke-dasharray:none"
         id="path36" /><path
         d="m 432.32715,322.08883 h 2.219 v -2.651 h -2.219 z"
         style="fill:#fdfdfd;fill-opacity:1;fill-rule:nonzero;stroke:none;stroke-opacity:1;stroke-width:1.50000004;stroke-miterlimit:4;stroke-dasharray:none"
         id="path38" /><g
         id="g40"
         transform="translate(19.077154,-165.58317)"
         style="fill:#fdfdfd;fill-opacity:1;stroke:none;stroke-opacity:1;stroke-width:1.50000004;stroke-miterlimit:4;stroke-dasharray:none"><g
           id="g42"
           clip-path="url(#clipPath46-2)"
           style="fill:#fdfdfd;fill-opacity:1;stroke:none;stroke-opacity:1;stroke-width:1.50000004;stroke-miterlimit:4;stroke-dasharray:none"><g
             id="g48"
             transform="translate(423.3066,490.1496)"
             style="fill:#fdfdfd;fill-opacity:1;stroke:none;stroke-opacity:1;stroke-width:1.50000004;stroke-miterlimit:4;stroke-dasharray:none"><path
               d="m 0,0 c 0,0.394 -0.054,0.754 -0.159,1.081 -0.106,0.326 -0.258,0.605 -0.454,0.836 -0.197,0.23 -0.44,0.41 -0.727,0.54 -0.288,0.129 -0.611,0.194 -0.966,0.194 H -3.43 V -2.68 h 1.124 c 0.366,0 0.692,0.067 0.98,0.202 0.288,0.135 0.531,0.322 0.727,0.562 0.197,0.24 0.346,0.523 0.447,0.85 C -0.051,-0.739 0,-0.384 0,0 m -6.239,-5.129 v 10.23 h 3.933 c 0.846,0 1.59,-0.135 2.234,-0.404 C 0.571,4.429 1.108,4.063 1.541,3.603 1.974,3.142 2.3,2.601 2.521,1.981 2.742,1.362 2.853,0.701 2.853,0 2.853,-0.778 2.729,-1.481 2.485,-2.111 2.241,-2.74 1.893,-3.278 1.439,-3.724 0.988,-4.171 0.446,-4.517 -0.188,-4.762 -0.821,-5.006 -1.527,-5.129 -2.306,-5.129 Z"
               style="fill:#fdfdfd;fill-opacity:1;fill-rule:nonzero;stroke:none;stroke-opacity:1;stroke-width:1.50000004;stroke-miterlimit:4;stroke-dasharray:none"
               id="path50" /></g><path
             d="m 427.226,487.672 h 2.218 v -2.651 h -2.218 z"
             style="fill:#fdfdfd;fill-opacity:1;fill-rule:nonzero;stroke:none;stroke-opacity:1;stroke-width:1.50000004;stroke-miterlimit:4;stroke-dasharray:none"
             id="path52" /><g
             id="g54"
             transform="translate(433.8535,490.6111)"
             style="fill:#fdfdfd;fill-opacity:1;stroke:none;stroke-opacity:1;stroke-width:1.50000004;stroke-miterlimit:4;stroke-dasharray:none"><path
               d="M 0,0 H 1.771 C 1.944,0 2.105,0.096 2.255,0.288 2.403,0.48 2.478,0.749 2.478,1.095 2.478,1.45 2.392,1.722 2.219,1.909 2.046,2.096 1.873,2.19 1.699,2.19 H 0 Z M -2.81,-5.59 V 4.64 H 1.888 C 2.386,4.64 2.848,4.536 3.271,4.33 3.693,4.123 4.056,3.854 4.358,3.523 4.66,3.191 4.898,2.812 5.071,2.384 5.244,1.957 5.33,1.527 5.33,1.095 5.33,0.5 5.201,-0.055 4.941,-0.569 4.682,-1.083 4.322,-1.503 3.861,-1.83 L 6.022,-5.59 H 2.853 L 1.052,-2.45 H 0 v -3.14 z"
               style="fill:#fdfdfd;fill-opacity:1;fill-rule:nonzero;stroke:none;stroke-opacity:1;stroke-width:1.50000004;stroke-miterlimit:4;stroke-dasharray:none"
               id="path56" /></g><g
             id="g58"
             transform="translate(403.3672,476.8982)"
             style="fill:#fdfdfd;fill-opacity:1;stroke:none;stroke-opacity:1;stroke-width:1.50000004;stroke-miterlimit:4;stroke-dasharray:none"><path
               d="m 0,0 h 3.271 c 0.298,0 0.569,0.064 0.814,0.194 0.245,0.13 0.454,0.303 0.627,0.519 0.173,0.216 0.307,0.466 0.403,0.749 0.096,0.284 0.144,0.579 0.144,0.887 0,0.317 -0.055,0.617 -0.165,0.9 C 4.983,3.532 4.834,3.78 4.647,3.991 4.46,4.202 4.238,4.368 3.984,4.488 3.729,4.608 3.463,4.668 3.185,4.668 H 0 Z M -1.008,-4.668 V 5.562 H 3.228 C 3.669,5.562 4.076,5.468 4.445,5.281 4.815,5.093 5.135,4.848 5.403,4.546 5.672,4.243 5.884,3.899 6.038,3.515 6.191,3.131 6.268,2.742 6.268,2.349 6.268,1.926 6.196,1.52 6.052,1.131 5.908,0.742 5.706,0.398 5.447,0.101 5.187,-0.197 4.877,-0.437 4.518,-0.62 4.157,-0.802 3.756,-0.894 3.314,-0.894 H 0 v -3.774 z"
               style="fill:#fdfdfd;fill-opacity:1;fill-rule:nonzero;stroke:none;stroke-opacity:1;stroke-width:1.50000004;stroke-miterlimit:4;stroke-dasharray:none"
               id="path60" /></g><g
             id="g62"
             transform="translate(414.0439,482.7478)"
             style="fill:#fdfdfd;fill-opacity:1;stroke:none;stroke-opacity:1;stroke-width:1.50000004;stroke-miterlimit:4;stroke-dasharray:none"><path
               d="m 0,0 h 0.979 v -8.818 c 0,-0.279 0.077,-0.497 0.231,-0.656 0.154,-0.158 0.371,-0.237 0.649,-0.237 0.105,0 0.23,0.014 0.374,0.043 0.145,0.029 0.279,0.067 0.404,0.115 l 0.173,-0.792 c -0.183,-0.077 -0.406,-0.139 -0.67,-0.188 -0.265,-0.048 -0.493,-0.071 -0.684,-0.071 -0.453,0 -0.808,0.127 -1.067,0.381 C 0.129,-9.968 0,-9.61 0,-9.149 Z"
               style="fill:#fdfdfd;fill-opacity:1;fill-rule:nonzero;stroke:none;stroke-opacity:1;stroke-width:1.50000004;stroke-miterlimit:4;stroke-dasharray:none"
               id="path64" /></g><g
             id="g66"
             transform="translate(423.1494,472.0857)"
             style="fill:#fdfdfd;fill-opacity:1;stroke:none;stroke-opacity:1;stroke-width:1.50000004;stroke-miterlimit:4;stroke-dasharray:none"><path
               d="M 0,0 C -0.816,0 -1.424,0.271 -1.823,0.814 -2.221,1.357 -2.421,2.166 -2.421,3.242 V 7.651 H -1.44 V 3.415 c 0,-1.701 0.58,-2.551 1.743,-2.551 0.288,0 0.571,0.049 0.849,0.145 0.28,0.095 0.536,0.235 0.772,0.417 0.235,0.182 0.446,0.399 0.634,0.649 0.187,0.249 0.338,0.533 0.453,0.85 v 4.726 h 0.98 V 1.412 c 0,-0.269 0.115,-0.403 0.346,-0.403 V 0.144 C 4.222,0.125 4.128,0.115 4.057,0.115 H 3.904 C 3.674,0.125 3.486,0.207 3.343,0.36 3.199,0.514 3.127,0.721 3.127,0.979 V 1.844 C 2.8,1.258 2.356,0.804 1.794,0.483 1.232,0.161 0.634,0 0,0"
               style="fill:#fdfdfd;fill-opacity:1;fill-rule:nonzero;stroke:none;stroke-opacity:1;stroke-width:1.50000004;stroke-miterlimit:4;stroke-dasharray:none"
               id="path68" /></g><g
             id="g70"
             transform="translate(434.7344,472.0857)"
             style="fill:#fdfdfd;fill-opacity:1;stroke:none;stroke-opacity:1;stroke-width:1.50000004;stroke-miterlimit:4;stroke-dasharray:none"><path
               d="m 0,0 c -0.587,0 -1.158,0.096 -1.715,0.288 -0.557,0.192 -1.038,0.47 -1.441,0.836 l 0.447,0.663 c 0.422,-0.346 0.853,-0.605 1.289,-0.778 0.438,-0.174 0.905,-0.26 1.405,-0.26 0.605,0 1.088,0.123 1.448,0.368 0.361,0.244 0.541,0.592 0.541,1.044 0,0.212 -0.048,0.387 -0.145,0.526 C 1.733,2.826 1.592,2.949 1.404,3.054 1.217,3.16 0.982,3.254 0.698,3.335 0.415,3.417 0.086,3.501 -0.289,3.587 -0.721,3.693 -1.096,3.799 -1.412,3.904 -1.729,4.01 -1.991,4.13 -2.198,4.265 c -0.206,0.134 -0.36,0.3 -0.46,0.497 -0.102,0.197 -0.153,0.444 -0.153,0.742 0,0.375 0.075,0.706 0.224,0.994 0.149,0.288 0.351,0.526 0.606,0.713 0.253,0.187 0.551,0.33 0.892,0.425 C -0.747,7.732 -0.385,7.781 0,7.781 0.576,7.781 1.099,7.687 1.57,7.5 2.041,7.312 2.421,7.065 2.708,6.757 L 2.233,6.181 C 1.954,6.469 1.616,6.686 1.217,6.83 0.818,6.974 0.403,7.046 -0.029,7.046 c -0.26,0 -0.5,-0.027 -0.72,-0.08 C -0.971,6.914 -1.165,6.83 -1.333,6.714 -1.501,6.599 -1.634,6.452 -1.729,6.275 -1.826,6.097 -1.873,5.888 -1.873,5.648 c 0,-0.202 0.033,-0.365 0.1,-0.49 C -1.706,5.033 -1.595,4.925 -1.441,4.834 -1.288,4.743 -1.094,4.661 -0.857,4.589 -0.622,4.517 -0.337,4.442 0,4.366 0.479,4.25 0.902,4.135 1.268,4.02 1.633,3.904 1.937,3.77 2.183,3.616 2.428,3.463 2.612,3.275 2.737,3.054 2.862,2.833 2.925,2.564 2.925,2.248 2.925,1.556 2.66,1.009 2.132,0.605 1.604,0.202 0.893,0 0,0"
               style="fill:#fdfdfd;fill-opacity:1;fill-rule:nonzero;stroke:none;stroke-opacity:1;stroke-width:1.50000004;stroke-miterlimit:4;stroke-dasharray:none"
               id="path72" /></g><g
             id="g74"
             transform="translate(402.9438,507.0363)"
             style="fill:#fdfdfd;fill-opacity:1;stroke:none;stroke-opacity:1;stroke-width:1.50000004;stroke-miterlimit:4;stroke-dasharray:none"><path
               d="M 0,0 0.048,0.121 26.25,3.913 9.923,25.734 C -6.658,23.055 -20.434,12.008 -26.936,-2.937 l 26.921,3.065 z"
               style="fill:#fdfdfd;fill-opacity:1;fill-rule:nonzero;stroke:none;stroke-opacity:1;stroke-width:1.50000004;stroke-miterlimit:4;stroke-dasharray:none"
               id="path76" /></g><g
             id="g78"
             transform="translate(392.3828,480.5862)"
             style="fill:#fdfdfd;fill-opacity:1;stroke:none;stroke-opacity:1;stroke-width:1.50000004;stroke-miterlimit:4;stroke-dasharray:none"><path
               d="m 0,0 9.752,24.423 -27.006,-3.074 c -2.032,-5.363 -3.147,-11.177 -3.147,-17.251 0,-10.965 3.623,-21.082 9.735,-29.223 l 10.67,25.12 z"
               style="fill:#fdfdfd;fill-opacity:1;fill-rule:nonzero;stroke:none;stroke-opacity:1;stroke-width:1.50000004;stroke-miterlimit:4;stroke-dasharray:none"
               id="path80" /></g><g
             id="g82"
             transform="translate(449.0146,488.7815)"
             style="fill:#fdfdfd;fill-opacity:1;stroke:none;stroke-opacity:1;stroke-width:1.50000004;stroke-miterlimit:4;stroke-dasharray:none"><path
               d="m 0,0 -9.738,-24.388 27.31,3.902 c 1.829,5.122 2.828,10.638 2.828,16.388 0,11.056 -3.684,21.249 -9.889,29.425 L -0.019,0.023 Z"
               style="fill:#fdfdfd;fill-opacity:1;fill-rule:nonzero;stroke:none;stroke-opacity:1;stroke-width:1.50000004;stroke-miterlimit:4;stroke-dasharray:none"
               id="path84" /></g><g
             id="g86"
             transform="translate(447.542,490.6496)"
             style="fill:#fdfdfd;fill-opacity:1;stroke:none;stroke-opacity:1;stroke-width:1.50000004;stroke-miterlimit:4;stroke-dasharray:none"><path
               d="m 0,0 10.523,25.29 c -8.936,10.672 -22.358,17.461 -37.366,17.461 -1.863,0 -3.7,-0.108 -5.508,-0.312 l 20.464,-27.352 z"
               style="fill:#fdfdfd;fill-opacity:1;fill-rule:nonzero;stroke:none;stroke-opacity:1;stroke-width:1.50000004;stroke-miterlimit:4;stroke-dasharray:none"
               id="path88" /></g><g
             id="g90"
             transform="translate(465.7432,466.1032)"
             style="fill:#fdfdfd;fill-opacity:1;stroke:none;stroke-opacity:1;stroke-width:1.50000004;stroke-miterlimit:4;stroke-dasharray:none"><path
               d="m 0,0 -34.569,-4.939 -18.858,-2.729 16.432,-21.803 C -20.204,-26.679 -6.318,-15.301 0,0"
               style="fill:#fdfdfd;fill-opacity:1;fill-rule:nonzero;stroke:none;stroke-opacity:1;stroke-width:1.50000004;stroke-miterlimit:4;stroke-dasharray:none"
               id="path92" /></g><g
             id="g94"
             transform="translate(393.8345,478.7434)"
             style="fill:#fdfdfd;fill-opacity:1;stroke:none;stroke-opacity:1;stroke-width:1.50000004;stroke-miterlimit:4;stroke-dasharray:none"><path
               d="m 0,0 -10.669,-25.118 c 8.936,-10.787 22.432,-17.659 37.533,-17.659 1.938,0 3.849,0.117 5.729,0.338 l -18.615,24.698 z"
               style="fill:#fdfdfd;fill-opacity:1;fill-rule:nonzero;stroke:none;stroke-opacity:1;stroke-width:1.50000004;stroke-miterlimit:4;stroke-dasharray:none"
               id="path96" /></g></g></g></g></g></svg>
