<?xml version="1.0" encoding="UTF-8" standalone="no"?>
<!DOCTYPE svg PUBLIC "-//W3C//DTD SVG 1.1//EN" "http://www.w3.org/Graphics/SVG/1.1/DTD/svg11.dtd">
<svg width="100%" height="100%" viewBox="0 0 1395 1395" version="1.1" xmlns="http://www.w3.org/2000/svg" xmlns:xlink="http://www.w3.org/1999/xlink" xml:space="preserve" xmlns:serif="http://www.serif.com/" style="fill-rule:evenodd;clip-rule:evenodd;stroke-linejoin:round;stroke-miterlimit:2;">
    <g transform="matrix(1,0,0,1,-5958.88,-920.95)">
        <g transform="matrix(4.16667,0,0,4.16667,3946.36,0)">
            <g transform="matrix(-1,0,0,1,1300.77,181.539)">
                <rect x="483.44" y="39.925" width="333.888" height="333.887" style="fill:rgb(240,240,240);"/>
            </g>
        </g>
        <g transform="matrix(4.16667,0,0,4.16667,3946.36,0)">
            <g transform="matrix(1,0,0,1,817.328,221.406)">
                <path d="M0,333.945C-0.003,330.727 -0.15,200.21 -0.377,0.058L0,0.435C-97.042,0.452 -211.615,0.472 -333.855,0.494L-333.887,0.494L-333.451,0.058C-333.473,122.325 -333.493,236.905 -333.51,333.945L-333.887,333.568C-133.71,333.795 -3.218,333.942 0,333.945C-3.216,333.949 -133.71,334.096 -333.887,334.322L-334.265,334.323L-334.265,333.945C-334.281,236.905 -334.302,122.325 -334.323,0.058L-334.323,-0.378L-333.855,-0.378C-211.615,-0.357 -97.042,-0.336 0,-0.319L0.378,-0.319L0.377,0.058C0.151,200.21 0.004,330.73 0,333.945" style="fill:rgb(28,47,54);fill-rule:nonzero;"/>
            </g>
        </g>
        <g transform="matrix(4.16667,0,0,4.16667,3946.36,0)">
            <text x="581.909px" y="383.11px" style="font-family:'Raleway-Black', 'Raleway';font-weight:900;font-size:23.406px;fill:rgb(68,105,178);">Image HDR</text>
        </g>
    </g>
</svg>
