<?xml version="1.0" encoding="UTF-8" standalone="no"?>
<svg
   xmlns:dc="http://purl.org/dc/elements/1.1/"
   xmlns:cc="http://creativecommons.org/ns#"
   xmlns:rdf="http://www.w3.org/1999/02/22-rdf-syntax-ns#"
   xmlns:svg="http://www.w3.org/2000/svg"
   xmlns="http://www.w3.org/2000/svg"
   xmlns:sodipodi="http://sodipodi.sourceforge.net/DTD/sodipodi-0.dtd"
   xmlns:inkscape="http://www.inkscape.org/namespaces/inkscape"
   version="1.1"
   id="svg2"
   xml:space="preserve"
   width="99.621994"
   height="46.829197"
   viewBox="0 0 99.621992 46.829197"
   sodipodi:docname="uni_logo.svg"
   inkscape:version="1.0.2 (e86c870879, 2021-01-15, custom)"><metadata
     id="metadata8"><rdf:RDF><cc:Work
         rdf:about=""><dc:format>image/svg+xml</dc:format><dc:type
           rdf:resource="http://purl.org/dc/dcmitype/StillImage" /><dc:title></dc:title></cc:Work></rdf:RDF></metadata><defs
     id="defs6"><clipPath
       clipPathUnits="userSpaceOnUse"
       id="clipPath18"><path
         d="M 0,373.932 H 841.89 V 595.275 H 0 Z"
         id="path16" /></clipPath><linearGradient
       x1="0"
       y1="0"
       x2="1"
       y2="0"
       gradientUnits="userSpaceOnUse"
       gradientTransform="matrix(841.88977,0,0,-841.88977,0,484.60373)"
       spreadMethod="pad"
       id="linearGradient30"><stop
         style="stop-opacity:1;stop-color:#2b639b"
         offset="0"
         id="stop24" /><stop
         style="stop-opacity:1;stop-color:#234075"
         offset="0.995897"
         id="stop26" /><stop
         style="stop-opacity:1;stop-color:#234075"
         offset="1"
         id="stop28" /></linearGradient><clipPath
       clipPathUnits="userSpaceOnUse"
       id="clipPath46"><path
         d="M 0,595.276 H 841.89 V 0 H 0 Z"
         id="path44" /></clipPath><clipPath
       clipPathUnits="userSpaceOnUse"
       id="clipPath112"><path
         d="m 750.777,385.152 h 75.72 v 36 h -75.72 z"
         id="path110" /></clipPath><clipPath
       clipPathUnits="userSpaceOnUse"
       id="clipPath304"><path
         d="M 0,595.276 H 841.89 V 0 H 0 Z"
         id="path302" /></clipPath><clipPath
       clipPathUnits="userSpaceOnUse"
       id="clipPath326"><path
         d="M 0,595.276 H 841.89 V 0 H 0 Z"
         id="path324" /></clipPath><clipPath
       clipPathUnits="userSpaceOnUse"
       id="clipPath112-1"><path
         d="m 750.777,385.152 h 75.72 v 36 h -75.72 z"
         id="path110-5" /></clipPath></defs><sodipodi:namedview
     pagecolor="#2e2e2e"
     bordercolor="#666666"
     borderopacity="1"
     objecttolerance="10"
     gridtolerance="10"
     guidetolerance="10"
     inkscape:pageopacity="1"
     inkscape:pageshadow="2"
     inkscape:window-width="1680"
     inkscape:window-height="1027"
     id="namedview4"
     showgrid="false"
     inkscape:zoom="5.238479"
     inkscape:cx="83.485855"
     inkscape:cy="8.4976567"
     inkscape:window-x="-8"
     inkscape:window-y="-8"
     inkscape:window-maximized="1"
     inkscape:current-layer="g10"
     fit-margin-top="0"
     fit-margin-left="0"
     fit-margin-right="0"
     fit-margin-bottom="0"
     inkscape:pagecheckerboard="false"
     showborder="true"
     borderlayer="false" /><g
     id="g10"
     inkscape:groupmode="layer"
     inkscape:label="HDRplusUI (2)"
     transform="matrix(1.3333333,0,0,-1.3333333,-914.50915,567.9369)"><g
       id="g106"
       transform="translate(-65.738017,5.5316833)"><g
         id="g108"
         clip-path="url(#clipPath112-1)"><g
           id="g114"
           transform="translate(756.8789,418.302)"><path
             d="m 0,0 h -3.506 l -1.753,-2.999 1.753,-2.998 H 0 l 1.753,2.998 z"
             style="fill:#4cc5e3;fill-opacity:1;fill-rule:nonzero;stroke:none"
             id="path116" /></g><g
           id="g118"
           transform="translate(768.3623,385.4455)"><path
             d="M 0,0 V 8.379 H 1.812 V 5.132 H 4.517 V 8.387 H 6.352 V 0.008 H 4.531 V 3.482 H 1.827 V 0.008 C 1.196,0 0.609,0 0,0"
             style="fill:#ffffff;fill-opacity:1;fill-rule:nonzero;stroke:none"
             id="path120" /></g><g
           id="g122"
           transform="translate(781.54,388.9353)"><path
             d="m 0,0 c -0.453,-0.403 -0.691,-0.836 -0.64,-1.43 0.053,-0.667 0.016,-1.341 0.016,-2.045 h -1.82 V 4.89 h 1.812 V 1.187 C 0.089,2.382 0.757,3.475 1.396,4.582 1.552,4.845 1.723,4.934 2.027,4.926 2.592,4.904 3.156,4.919 3.803,4.919 3.691,4.75 3.624,4.64 3.55,4.53 2.867,3.555 2.184,2.58 1.485,1.62 1.307,1.378 1.314,1.209 1.455,0.96 2.221,-0.403 2.963,-1.774 3.714,-3.145 3.766,-3.24 3.811,-3.343 3.885,-3.504 3.201,-3.504 2.563,-3.512 1.931,-3.49 1.85,-3.49 1.753,-3.335 1.693,-3.24 1.129,-2.17 0.571,-1.1 0,0"
             style="fill:#ffffff;fill-opacity:1;fill-rule:nonzero;stroke:none"
             id="path124" /></g><g
           id="g126"
           transform="translate(811.1025,414.7097)"><path
             d="m 0,0 h -0.029 v 0.638 c -0.008,0.586 -0.409,1.158 -0.877,1.276 -0.468,0.117 -1.01,-0.147 -1.315,-0.683 -0.498,-0.872 -0.386,-1.759 0.045,-2.609 0.208,-0.411 0.624,-0.623 1.107,-0.572 0.519,0.059 0.854,0.381 0.965,0.872 C -0.022,-0.726 -0.029,-0.359 0,0 m -3.491,-5.241 c 0.096,0.373 0.193,0.725 0.29,1.092 2.473,-1.085 3.38,0.183 3.172,1.869 -0.075,-0.066 -0.142,-0.11 -0.201,-0.161 -0.757,-0.785 -1.85,-0.851 -2.681,-0.146 -0.669,0.564 -1.048,1.282 -1.055,2.154 -0.008,0.719 0.022,1.445 0.363,2.119 0.803,1.569 2.437,1.84 3.73,0.572 0.044,0.227 0.074,0.432 0.118,0.659 H 1.501 C 1.479,2.434 1.441,1.979 1.434,1.518 1.427,0.154 1.448,-1.209 1.427,-2.565 1.419,-2.983 1.382,-3.416 1.271,-3.819 0.98,-4.904 0.134,-5.557 -1.003,-5.63 c -0.958,-0.066 -1.834,0.066 -2.488,0.389"
             style="fill:#ffffff;fill-opacity:1;fill-rule:nonzero;stroke:none"
             id="path128" /></g><g
           id="g130"
           transform="translate(764.4707,406.3747)"><path
             d="M 0,0 C -0.342,-1.297 -0.654,-2.514 -0.98,-3.753 H 0.987 C 0.661,-2.507 0.341,-1.29 0,0 m -3.313,-7.169 c 0.378,1.261 0.728,2.441 1.084,3.621 0.431,1.444 0.862,2.888 1.286,4.333 0.066,0.241 0.163,0.359 0.437,0.344 C -0.104,1.107 0.304,1.136 0.705,1.114 0.816,1.107 0.987,0.99 1.018,0.887 1.797,-1.737 2.563,-4.369 3.335,-6.993 3.342,-7.022 3.327,-7.067 3.32,-7.162 c -0.438,0 -0.869,-0.015 -1.307,0.015 -0.075,0.007 -0.179,0.161 -0.208,0.264 -0.171,0.557 -0.327,1.121 -0.476,1.686 -0.066,0.256 -0.185,0.374 -0.468,0.359 -0.594,-0.022 -1.188,-0.015 -1.783,0 -0.229,0.007 -0.341,-0.074 -0.393,-0.301 -0.134,-0.571 -0.297,-1.129 -0.431,-1.7 -0.06,-0.243 -0.171,-0.352 -0.439,-0.33 -0.356,0.014 -0.712,0 -1.128,0"
             style="fill:#ffffff;fill-opacity:1;fill-rule:nonzero;stroke:none"
             id="path132" /></g><g
           id="g134"
           transform="translate(777.9668,420.3542)"><path
             d="m 0,0 h 1.441 v -3.328 c 0.431,0.242 0.825,0.564 1.27,0.689 1.077,0.308 2.117,-0.418 2.31,-1.576 0.06,-0.352 0.052,-0.718 0.06,-1.077 0.007,-0.998 0,-1.995 0,-2.992 V -8.716 H 3.64 c -0.008,0.081 -0.03,0.161 -0.03,0.242 0,1.158 0,2.316 0.007,3.482 C 3.625,-4.31 3.269,-3.826 2.704,-3.775 2.087,-3.716 1.56,-4.156 1.463,-4.831 1.434,-5.014 1.434,-5.205 1.434,-5.388 v -2.918 c 0,-0.132 -0.015,-0.271 -0.015,-0.417 H -0.008 C 0,-5.82 0,-2.925 0,0"
             style="fill:#ffffff;fill-opacity:1;fill-rule:nonzero;stroke:none"
             id="path136" /></g><g
           id="g138"
           transform="translate(797.8369,385.4602)"><path
             d="M 0,0 C -0.127,-0.015 -0.208,-0.029 -0.298,-0.029 H -1.843 V 6.07 h 1.516 C -0.29,5.843 -0.261,5.601 -0.216,5.315 -0.127,5.396 -0.06,5.454 0.007,5.513 0.676,6.136 1.455,6.393 2.34,6.07 3.201,5.748 3.603,5.044 3.617,4.164 3.646,2.786 3.624,1.4 3.624,-0.007 H 1.782 v 0.821 2.69 C 1.782,3.651 1.774,3.805 1.745,3.952 1.634,4.487 1.403,4.699 0.958,4.685 0.475,4.67 0.111,4.376 0.066,3.893 0.015,3.321 0.015,2.749 0.015,2.177 -0.008,1.452 0,0.733 0,0"
             style="fill:#ffffff;fill-opacity:1;fill-rule:nonzero;stroke:none"
             id="path140" /></g><g
           id="g142"
           transform="translate(789.8066,388.4294)"><path
             d="m 0,0 c -0.037,0.007 -0.066,0.022 -0.104,0.029 0,0.719 -0.126,1.195 -0.401,1.525 -0.379,0.447 -1.003,0.469 -1.322,-0.014 -0.2,-0.301 -0.334,-0.668 -0.379,-1.027 -0.089,-0.667 -0.104,-1.349 0.372,-1.921 0.416,-0.506 1.113,-0.484 1.411,0.096 C -0.208,-0.917 -0.134,-0.44 0,0 M -1.121,3.204 C 0.55,3.167 1.649,2.126 1.775,0.462 1.843,-0.396 1.716,-1.209 1.219,-1.936 0.602,-2.844 -0.683,-3.313 -1.834,-3.064 c -1.219,0.271 -2.058,1.188 -2.244,2.434 -0.096,0.63 -0.059,1.238 0.141,1.847 0.439,1.326 1.412,2.016 2.816,1.987"
             style="fill:#ffffff;fill-opacity:1;fill-rule:nonzero;stroke:none"
             id="path144" /></g><g
           id="g146"
           transform="translate(766.9658,393.8249)"><path
             d="m 0,0 v -1.591 h -2.035 v -6.781 h -1.85 v 6.767 H -5.868 V 0.007 C -3.929,0 -1.99,0 0,0"
             style="fill:#ffffff;fill-opacity:1;fill-rule:nonzero;stroke:none"
             id="path148" /></g><g
           id="g150"
           transform="translate(784.4219,399.5647)"><path
             d="M 0,0 C 0.06,0.278 0.111,0.542 0.171,0.806 0.193,0.902 0.223,0.99 0.252,1.092 0.69,0.953 1.1,0.799 1.522,0.696 2.005,0.572 2.48,0.645 2.919,0.872 3.714,1.275 3.848,2.089 3.172,2.668 2.8,2.991 2.31,3.174 1.887,3.445 1.463,3.709 0.995,3.944 0.668,4.303 -0.327,5.374 -0.074,6.876 1.203,7.609 2.235,8.203 3.313,8.188 4.412,7.807 4.598,7.741 4.664,7.646 4.59,7.44 4.494,7.169 4.449,6.891 4.367,6.576 3.981,6.678 3.617,6.832 3.238,6.854 2.853,6.876 2.421,6.832 2.072,6.686 1.485,6.444 1.3,5.806 1.708,5.322 2.005,4.978 2.443,4.743 2.837,4.486 3.298,4.186 3.848,3.988 4.233,3.621 5.526,2.397 5.214,0.66 3.609,-0.139 2.548,-0.66 1.092,-0.616 0,0"
             style="fill:#ffffff;fill-opacity:1;fill-rule:nonzero;stroke:none"
             id="path152" /></g><g
           id="g154"
           transform="translate(804.7441,414.6804)"><path
             d="m 0,0 c -0.104,0.411 -0.178,0.799 -0.289,1.173 -0.156,0.52 -0.55,0.836 -1.018,0.858 -0.505,0.022 -0.965,-0.279 -1.151,-0.807 -0.305,-0.857 -0.335,-1.723 0.044,-2.58 0.208,-0.469 0.527,-0.763 1.055,-0.763 0.535,0 0.877,0.33 1.04,0.785 C -0.178,-0.901 -0.111,-0.447 0,0 m -4.219,-0.073 c 0.008,1.077 0.357,1.994 1.218,2.705 0.706,0.579 2.243,0.66 3.083,0.124 1.701,-1.085 1.857,-4.097 0.274,-5.329 -1.641,-1.283 -4.233,-0.462 -4.486,1.723 -0.022,0.256 -0.059,0.52 -0.089,0.777"
             style="fill:#ffffff;fill-opacity:1;fill-rule:nonzero;stroke:none"
             id="path156" /></g><g
           id="g158"
           transform="translate(795.1182,414.5779)"><path
             d="M 0,0 C -0.127,0.499 -0.201,0.975 -0.372,1.422 -0.55,1.876 -0.914,2.177 -1.448,2.126 -1.961,2.082 -2.303,1.796 -2.481,1.327 -2.823,0.433 -2.808,-0.44 -2.399,-1.312 c 0.193,-0.403 0.49,-0.66 0.943,-0.697 0.482,-0.036 0.847,0.213 1.025,0.623 C -0.245,-0.946 -0.142,-0.477 0,0 m 1.448,-0.029 c -0.074,-0.36 -0.119,-0.799 -0.245,-1.21 -0.438,-1.407 -1.924,-2.045 -3.291,-1.766 -1.337,0.278 -1.99,1.436 -2.116,2.433 -0.082,0.66 -0.037,1.312 0.208,1.95 0.512,1.334 1.426,1.855 2.845,1.826 C 0.081,3.174 1.01,2.316 1.3,1.041 1.381,0.718 1.396,0.381 1.448,-0.029"
             style="fill:#ffffff;fill-opacity:1;fill-rule:nonzero;stroke:none"
             id="path160" /></g><g
           id="g162"
           transform="translate(786.0859,411.6311)"><path
             d="m 0,0 h -1.441 c -0.015,0.088 -0.038,0.168 -0.038,0.249 -0.014,1.847 -0.029,3.688 -0.037,5.535 0,0.073 0.126,0.212 0.208,0.22 0.328,0.022 0.654,0.007 1.01,0.007 C -0.253,5.747 -0.216,5.513 -0.171,5.227 0.223,5.681 0.661,6.011 1.226,6.114 2.354,6.326 3.469,5.608 3.55,4.42 3.654,2.961 3.572,1.488 3.572,0 H 2.153 v 0.403 3.181 c 0,0.125 0,0.25 -0.014,0.374 C 2.042,4.567 1.619,4.985 1.114,4.978 0.579,4.97 0.081,4.516 0.021,3.915 -0.016,3.519 0,3.115 -0.008,2.72 0,1.84 0,0.938 0,0"
             style="fill:#ffffff;fill-opacity:1;fill-rule:nonzero;stroke:none"
             id="path164" /></g><g
           id="g166"
           transform="translate(819.0059,417.6496)"><path
             d="m 0,0 c -0.081,-0.271 -0.134,-0.469 -0.208,-0.667 -0.676,-1.899 -1.337,-3.805 -2.05,-5.696 -0.29,-0.762 -0.758,-1.445 -1.463,-1.913 -0.32,-0.213 -0.698,-0.352 -1.092,-0.536 -0.134,0.484 -0.246,0.865 -0.327,1.173 0.453,0.367 0.884,0.675 1.263,1.041 0.386,0.374 0.476,0.806 0.26,1.356 -0.624,1.576 -1.189,3.175 -1.776,4.765 -0.051,0.14 -0.096,0.279 -0.156,0.477 0.513,0 0.988,0.015 1.456,-0.015 0.089,-0.007 0.194,-0.198 0.231,-0.33 0.379,-1.26 0.743,-2.529 1.114,-3.797 0.022,-0.066 0.052,-0.132 0.103,-0.256 0.171,0.696 0.328,1.334 0.491,1.964 0.186,0.711 0.386,1.415 0.564,2.133 0.06,0.242 0.171,0.323 0.416,0.308 C -0.81,-0.015 -0.438,0 0,0"
             style="fill:#ffffff;fill-opacity:1;fill-rule:nonzero;stroke:none"
             id="path168" /></g><g
           id="g170"
           transform="translate(767.9395,415.3034)"><path
             d="M 0,0 H 2.317 C 2.354,0.843 1.856,1.481 1.181,1.466 0.497,1.452 -0.03,0.799 0,0 M 3.624,-1.063 H 0 C -0.09,-1.906 0.445,-2.595 1.307,-2.639 1.924,-2.668 2.555,-2.573 3.216,-2.536 3.23,-2.602 3.268,-2.756 3.305,-2.91 3.417,-3.497 3.417,-3.489 2.808,-3.636 2.087,-3.812 1.374,-3.922 0.639,-3.724 c -1.456,0.389 -2.169,1.657 -2.132,3.028 0.022,0.762 0.26,1.466 0.683,2.104 0.542,0.806 1.36,1.099 2.288,1.07 C 2.443,2.441 3.09,1.899 3.461,1.034 3.743,0.374 3.773,-0.308 3.624,-1.063"
             style="fill:#ffffff;fill-opacity:1;fill-rule:nonzero;stroke:none"
             id="path172" /></g><g
           id="g174"
           transform="translate(806.2451,404.3811)"><path
             d="m 0,0 c 0.245,0.22 0.438,0.432 0.676,0.586 1.248,0.843 2.978,0.088 3.06,-1.4 0.081,-1.429 0.015,-2.866 0.015,-4.362 -0.401,0 -0.787,-0.014 -1.166,0.015 -0.067,0.007 -0.171,0.22 -0.171,0.337 -0.015,1.034 0,2.068 -0.015,3.109 0,0.256 -0.037,0.52 -0.112,0.769 C 2.176,-0.557 1.916,-0.293 1.5,-0.228 1.062,-0.154 0.661,-0.293 0.46,-0.675 0.274,-1.026 0.148,-1.444 0.134,-1.833 0.089,-2.793 0.118,-3.753 0.118,-4.714 v -0.432 h -1.381 c -0.008,0.103 -0.03,0.212 -0.03,0.322 -0.007,1.774 -0.007,3.541 -0.022,5.315 0,0.235 0.075,0.322 0.304,0.301 0.037,-0.008 0.074,0 0.112,0 C -0.104,0.784 -0.104,0.784 0,0"
             style="fill:#ffffff;fill-opacity:1;fill-rule:nonzero;stroke:none"
             id="path176" /></g><g
           id="g178"
           transform="translate(817.7432,402.7903)"><path
             d="m 0,0 c 0.735,0 1.448,-0.007 2.169,0.007 0.067,0 0.185,0.096 0.201,0.169 C 2.54,0.806 1.827,1.598 1.159,1.532 0.483,1.466 0,0.857 0,0 m -0.007,-0.96 c -0.067,-1.144 0.773,-1.804 2.028,-1.665 0.371,0.044 0.743,0.118 1.18,0.184 C 3.261,-2.72 3.328,-3.013 3.395,-3.306 1.53,-4.179 -0.936,-3.797 -1.359,-1.408 -1.59,-0.125 -1.314,1.114 -0.26,1.986 1.219,3.211 3.306,2.404 3.625,0.535 3.685,0.183 3.67,-0.184 3.714,-0.542 3.751,-0.865 3.64,-0.982 3.298,-0.968 2.34,-0.946 1.382,-0.96 0.416,-0.96 Z"
             style="fill:#ffffff;fill-opacity:1;fill-rule:nonzero;stroke:none"
             id="path180" /></g><g
           id="g182"
           transform="translate(800.0059,402.7976)"><path
             d="m 0,0 c 0.772,0 1.515,-0.007 2.258,0.007 0.052,0 0.14,0.103 0.156,0.169 C 2.495,0.528 2.184,1.151 1.842,1.371 1.485,1.598 1.01,1.583 0.639,1.312 0.208,1.012 0.052,0.579 0,0 m 0.021,-0.968 c -0.066,-0.982 0.595,-1.649 1.621,-1.678 0.259,-0.008 0.527,0.029 0.787,0.065 0.245,0.03 0.49,0.088 0.801,0.147 0.053,-0.242 0.127,-0.491 0.157,-0.755 0.008,-0.081 -0.112,-0.22 -0.2,-0.249 -0.781,-0.271 -1.583,-0.403 -2.415,-0.22 -1.091,0.235 -1.968,1.18 -2.117,2.28 -0.141,1.026 0.067,1.979 0.631,2.851 0.558,0.851 1.412,1.085 2.362,1.034 C 2.466,2.463 3.03,2.016 3.395,1.312 3.714,0.696 3.766,0.029 3.758,-0.652 3.758,-0.88 3.646,-0.975 3.401,-0.968 2.414,-0.953 1.434,-0.96 0.445,-0.96 0.319,-0.968 0.178,-0.968 0.021,-0.968"
             style="fill:#ffffff;fill-opacity:1;fill-rule:nonzero;stroke:none"
             id="path184" /></g><g
           id="g186"
           transform="translate(763.1553,418.7492)"><path
             d="m 0,0 h -2.132 v 1.224 h 5.72 V -0.007 H 1.464 V -7.111 H 0.008 C 0,-4.765 0,-2.412 0,0"
             style="fill:#ffffff;fill-opacity:1;fill-rule:nonzero;stroke:none"
             id="path188" /></g><path
           d="m 794.517,385.424 h -1.85 v 8.79 h 1.85 z"
           style="fill:#ffffff;fill-opacity:1;fill-rule:nonzero;stroke:none"
           id="path190" /><path
           d="m 797.763,420.421 h 1.529 v -8.848 h -1.529 z"
           style="fill:#ffffff;fill-opacity:1;fill-rule:nonzero;stroke:none"
           id="path192" /><g
           id="g194"
           transform="translate(822.5713,400.3488)"><path
             d="M 0,0 C 0.595,-0.081 1.129,-0.176 1.672,-0.205 1.991,-0.22 2.258,-0.037 2.348,0.293 2.437,0.631 2.266,0.887 2.006,1.063 1.761,1.232 1.485,1.371 1.211,1.481 0.453,1.789 -0.111,2.529 -0.097,3.248 -0.074,4.062 0.698,4.875 1.642,4.934 2.154,4.97 2.682,4.831 3.201,4.758 3.432,4.721 3.506,4.575 3.425,4.347 3.343,4.127 3.283,3.9 3.231,3.717 2.815,3.797 2.429,3.907 2.035,3.937 1.619,3.959 1.322,3.717 1.263,3.409 1.211,3.116 1.419,2.808 1.783,2.632 2.035,2.515 2.288,2.397 2.533,2.272 3.351,1.862 3.825,1.144 3.759,0.418 3.691,-0.3 3.031,-0.967 2.169,-1.202 1.411,-1.415 0.698,-1.217 -0.015,-0.989 -0.186,-0.931 -0.245,-0.835 -0.178,-0.645 -0.104,-0.41 -0.052,-0.161 0,0"
             style="fill:#ffffff;fill-opacity:1;fill-rule:nonzero;stroke:none"
             id="path196" /></g><g
           id="g198"
           transform="translate(780.5518,404.073)"><path
             d="m 0,0 c -0.431,0.081 -0.795,0.183 -1.166,0.212 -0.394,0.03 -0.743,-0.219 -0.803,-0.49 -0.074,-0.345 0.068,-0.587 0.469,-0.8 0.312,-0.161 0.639,-0.307 0.943,-0.476 0.713,-0.396 1.173,-1.173 1.062,-1.789 -0.149,-0.828 -0.779,-1.407 -1.642,-1.598 -0.713,-0.154 -1.374,0.029 -2.042,0.206 -0.216,0.058 -0.312,0.175 -0.208,0.41 0.089,0.213 0.133,0.447 0.178,0.601 0.564,-0.073 1.085,-0.183 1.612,-0.205 0.326,-0.015 0.624,0.168 0.713,0.513 0.104,0.381 -0.119,0.652 -0.424,0.835 -0.222,0.133 -0.467,0.243 -0.705,0.345 -0.617,0.272 -1.077,0.682 -1.278,1.342 -0.155,0.513 0.008,0.96 0.327,1.356 0.669,0.813 2.14,1.063 3.046,0.513 C 0.156,0.931 0.23,0.792 0.208,0.711 0.163,0.455 0.066,0.212 0,0"
             style="fill:#ffffff;fill-opacity:1;fill-rule:nonzero;stroke:none"
             id="path200" /></g><g
           id="g202"
           transform="translate(774.9512,406.7048)"><path
             d="m 0,0 c 0,-0.425 0.015,-0.792 -0.008,-1.151 -0.022,-0.315 0.112,-0.425 0.424,-0.396 0.223,0.015 0.453,-0.007 0.684,0.007 0.192,0.008 0.282,-0.065 0.266,-0.256 -0.007,-0.235 0,-0.469 0,-0.748 -0.386,0 -0.72,0.022 -1.054,-0.007 -0.104,-0.008 -0.29,-0.147 -0.29,-0.22 -0.014,-0.946 -0.044,-1.899 0.015,-2.837 0.045,-0.711 0.312,-0.88 1.047,-0.858 H 1.308 C 1.308,-6.737 1.314,-7.001 1.3,-7.272 1.292,-7.345 1.24,-7.441 1.181,-7.478 0.29,-8.005 -1.122,-7.419 -1.3,-6.422 c -0.059,0.338 -0.037,0.689 -0.037,1.034 -0.008,0.814 -0.015,1.62 0.007,2.433 0.008,0.323 -0.096,0.477 -0.431,0.418 -0.4,-0.073 -0.43,0.169 -0.408,0.462 0.015,0.272 -0.082,0.616 0.408,0.543 0.335,-0.051 0.439,0.095 0.439,0.418 -0.008,0.733 0.008,0.733 0.743,0.953 C -0.424,-0.117 -0.245,-0.073 0,0"
             style="fill:#ffffff;fill-opacity:1;fill-rule:nonzero;stroke:none"
             id="path204" /></g><g
           id="g206"
           transform="translate(776.9121,417.5246)"><path
             d="m 0,0 c -0.089,-0.374 -0.163,-0.711 -0.245,-1.078 -0.966,0.323 -1.842,0.294 -2.414,-0.645 -0.498,-0.82 -0.483,-1.678 0.074,-2.47 0.594,-0.828 1.441,-0.799 2.355,-0.52 0.051,-0.294 0.119,-0.572 0.148,-0.851 0.008,-0.081 -0.081,-0.22 -0.148,-0.242 -1.5,-0.447 -3.328,-0.293 -4.041,1.628 -0.668,1.796 0.29,3.848 1.983,4.288 C -1.53,0.315 -0.787,0.264 0,0"
             style="fill:#ffffff;fill-opacity:1;fill-rule:nonzero;stroke:none"
             id="path208" /></g><g
           id="g210"
           transform="translate(815.4551,400.3342)"><path
             d="m 0,0 c 0.053,-0.293 0.127,-0.557 0.142,-0.821 0.007,-0.08 -0.112,-0.22 -0.201,-0.242 -1.085,-0.315 -2.162,-0.344 -3.075,0.425 -0.906,0.756 -1.174,1.774 -1.011,2.903 0.186,1.291 0.855,2.214 2.169,2.595 0.647,0.183 1.293,0.11 1.939,-0.036 C 0.142,4.78 0.216,4.699 0.171,4.509 0.112,4.245 0.067,3.98 0.008,3.688 -0.958,4.003 -1.827,3.988 -2.398,3.079 -2.904,2.287 -2.896,1.43 -2.398,0.638 -1.834,-0.278 -0.958,-0.278 0,0"
             style="fill:#ffffff;fill-opacity:1;fill-rule:nonzero;stroke:none"
             id="path212" /></g><g
           id="g214"
           transform="translate(794.6504,400.3488)"><path
             d="M 0,0 C 0.059,-0.359 0.111,-0.66 0.155,-0.96 -0.929,-1.502 -2.622,-1.356 -3.47,-0.366 -4.695,1.063 -4.376,3.519 -2.809,4.486 -1.924,5.036 -0.974,5.021 0,4.772 0.074,4.75 0.17,4.611 0.163,4.538 0.118,4.259 0.037,3.988 -0.038,3.68 -0.988,3.974 -1.865,3.951 -2.43,3.042 -2.942,2.221 -2.935,1.342 -2.37,0.542 -1.783,-0.3 -0.922,-0.286 0,0"
             style="fill:#ffffff;fill-opacity:1;fill-rule:nonzero;stroke:none"
             id="path216" /></g><g
           id="g218"
           transform="translate(768.8457,405.136)"><path
             d="m 0,0 h 1.136 c 0.045,-0.315 0.096,-0.638 0.156,-1.07 0.104,0.19 0.163,0.293 0.223,0.388 0.29,0.492 0.713,0.792 1.299,0.85 0.231,0.022 0.373,-0.043 0.342,-0.3 -0.007,-0.073 0,-0.146 0,-0.227 0,-0.682 0,-0.682 -0.645,-0.843 C 1.901,-1.356 1.515,-1.781 1.478,-2.47 1.426,-3.438 1.434,-4.413 1.418,-5.381 1.411,-5.923 1.418,-5.923 0.861,-5.923 0,-5.923 0,-5.923 0,-5.087 v 4.676 z"
             style="fill:#ffffff;fill-opacity:1;fill-rule:nonzero;stroke:none"
             id="path220" /></g><g
           id="g222"
           transform="translate(797.3838,399.2053)"><path
             d="m 0,0 c -0.416,0 -0.803,-0.007 -1.188,0 -0.268,0.007 -0.202,0.213 -0.202,0.359 -0.006,1.232 0,2.471 0,3.703 0,0.52 0.008,1.047 0,1.568 -0.006,0.235 0.068,0.345 0.328,0.33 C -0.714,5.945 -0.364,5.953 0.015,5.953 0,3.966 0,2.016 0,0"
             style="fill:#ffffff;fill-opacity:1;fill-rule:nonzero;stroke:none"
             id="path224" /></g><g
           id="g226"
           transform="translate(789.9336,394.0959)"><path
             d="M 0,0 C 0.475,-0.007 0.824,-0.381 0.816,-0.88 0.81,-1.371 0.445,-1.715 -0.06,-1.701 c -0.49,0.008 -0.809,0.36 -0.802,0.88 C -0.854,-0.337 -0.498,0 0,0"
             style="fill:#ffffff;fill-opacity:1;fill-rule:nonzero;stroke:none"
             id="path228" /></g><g
           id="g230"
           transform="translate(787.4004,394.0959)"><path
             d="M 0,0 C 0.497,0 0.824,-0.345 0.817,-0.865 0.81,-1.363 0.482,-1.701 0,-1.701 c -0.498,0 -0.854,0.36 -0.847,0.851 C -0.84,-0.345 -0.505,-0.007 0,0"
             style="fill:#ffffff;fill-opacity:1;fill-rule:nonzero;stroke:none"
             id="path232" /></g><g
           id="g234"
           transform="translate(795.9053,406.8733)"><path
             d="M 0,0 C 0,0.513 0.29,0.814 0.78,0.807 1.226,0.799 1.582,0.455 1.574,0.029 1.567,-0.418 1.203,-0.777 0.758,-0.77 0.342,-0.77 0,-0.411 0,0"
             style="fill:#ffffff;fill-opacity:1;fill-rule:nonzero;stroke:none"
             id="path236" /></g></g></g></g></svg>
